<?xml version="1.0" encoding="utf-8"?>
<!-- Generator: Adobe Illustrator 24.0.0, SVG Export Plug-In . SVG Version: 6.00 Build 0)  -->
<svg version="1.1" id="Layer_1" xmlns="http://www.w3.org/2000/svg" xmlns:xlink="http://www.w3.org/1999/xlink" x="0px" y="0px"
	 viewBox="0 0 300 300" style="enable-background:new 0 0 300 300;" xml:space="preserve">
<style type="text/css">
	.st0{fill:#ED1C24;}
</style>
<path class="st0" d="M286.8,89.2c-1.3-2.9-2.7-5.8-4.2-8.6l-21.4,19.7c4.5,10.1,7.6,20.4,9.3,30.9c0.1,0.9,0.3,1.8,0.4,2.7
	c1.5,11.4,1.4,23-0.4,34.8c-1,6.2-2.4,12.2-4.2,18.1c0,0.1-0.1,0.2-0.1,0.3c-0.5,1.6-1.1,3.2-1.6,4.8c-0.2,0.7-0.5,1.3-0.7,2
	c-0.4,1-0.8,2-1.2,3c-0.4,1.1-0.9,2.1-1.4,3.2c-0.3,0.6-0.6,1.2-0.8,1.8c-0.6,1.3-1.3,2.6-1.9,3.9c-0.2,0.4-0.4,0.8-0.6,1.1
	c-0.7,1.4-1.5,2.8-2.3,4.2c-0.2,0.3-0.4,0.7-0.6,1c-0.8,1.3-1.6,2.6-2.4,3.9c-0.3,0.4-0.6,0.9-0.9,1.3c-0.7,1.1-1.5,2.2-2.2,3.2
	c-0.5,0.7-1,1.4-1.5,2.1c-0.5,0.7-1.1,1.4-1.6,2.2c-0.9,1.1-1.7,2.2-2.6,3.2c-0.2,0.3-0.4,0.5-0.7,0.8
	c-22.8,26.8-56.7,43.3-93.5,43.4c-36.8-0.1-70.7-16.5-93.5-43.4c-0.2-0.3-0.4-0.5-0.7-0.8c-0.9-1.1-1.8-2.2-2.6-3.2
	c-0.6-0.7-1.1-1.4-1.6-2.2c-0.5-0.7-1-1.4-1.5-2.1c-0.8-1.1-1.5-2.1-2.2-3.2c-0.3-0.4-0.6-0.9-0.9-1.3c-0.8-1.3-1.6-2.6-2.4-3.9
	c-0.2-0.3-0.4-0.7-0.6-1c-0.8-1.4-1.6-2.8-2.3-4.2c-0.2-0.4-0.4-0.8-0.6-1.1c-0.7-1.3-1.3-2.6-1.9-3.9c-0.3-0.6-0.6-1.2-0.8-1.8
	c-0.5-1.1-0.9-2.1-1.4-3.2c-0.4-1-0.8-2-1.2-3c-0.3-0.7-0.5-1.3-0.7-2c-0.6-1.6-1.1-3.2-1.6-4.8c0-0.1-0.1-0.2-0.1-0.3
	c-1.8-5.8-3.2-11.9-4.2-18.1c-1.8-11.8-2-23.4-0.4-34.8c0.1-0.9,0.2-1.8,0.4-2.7c1.8-11.6,5.4-22.9,10.7-33.9
	c0.3-0.7,0.6-1.3,0.7-1.9c13.1-26.3,35-46.5,61-57.7c1.1-0.3,2.3-0.7,3.6-1.2c14.5-5.8,29.4-8.7,44-8.8c0.3,0,0.7,0,1,0
	c0.3,0,0.7,0,1,0c14.6,0.2,29.5,3,44,8.8c0.5,0.2,0.9,0.3,1.3,0.5l22.3-20.5C196.1,5.1,172.5,0,149.5,0C109.7,0,67.7,15.4,36.1,51.6
	c-10,11.5-18,24.2-23.9,37.6c-8.1,17.6-12.7,38.2-12.8,59.6c0,0.1,0,0.3,0,0.4c0,1.9,0,3.8,0.1,5.8c0,0.7,0.1,1.5,0.1,2.2
	c0.1,1.3,0.1,2.5,0.2,3.8c0.1,1.4,0.2,2.7,0.4,4.1c0.1,0.5,0.1,1.1,0.2,1.6C4,199.9,18.6,232,44,256.7
	c24.8,24.1,55.4,38.2,86.9,42.2c0.2,0,0.4,0.1,0.7,0.1c1.8,0.2,3.7,0.4,5.5,0.5c0.6,0,1.1,0.1,1.7,0.1c1.5,0.1,3,0.2,4.5,0.2
	c0.9,0,1.8,0.1,2.6,0.1c1.2,0,2.4,0,3.6,0c1.2,0,2.4,0,3.6,0c0.9,0,1.8-0.1,2.6-0.1c1.5-0.1,3-0.1,4.5-0.2c0.6,0,1.1-0.1,1.7-0.1
	c1.8-0.2,3.7-0.3,5.5-0.5c0.2,0,0.4-0.1,0.7-0.1c31.6-4,62.2-18,86.9-42.2c25.4-24.8,40-56.8,43.7-90c0.1-0.5,0.1-1.1,0.2-1.6
	c0.1-1.4,0.3-2.7,0.4-4.1c0.1-1.3,0.2-2.5,0.2-3.8c0-0.7,0.1-1.5,0.1-2.2c0.1-1.9,0.1-3.8,0.1-5.8c0-0.1,0-0.3,0-0.4
	C299.5,127.4,294.9,106.8,286.8,89.2z"/>
<path class="st0" d="M277.9,44.2c-1.7-8-6.6-13.9-12.1-19.5c-5-5-8.1-5.8-14.2-2.6c-0.7,0.3-1.5,0.7-2.3,1.1
	c-5.6,3-11.1,6.5-16.1,10.4c-15.1,12.1-30.1,24.4-45.1,36.7c-5.5,4.5-10.9,9-16.4,13.4c-6.5,5.3-12.8,10.7-19.4,16.4
	c-1,0.8-2,1.7-3,2.5c-4.3-4.6-8.7-8.8-12.4-13.4c-7.8-9.7-15.2-19.8-22.9-29.6c-6.5-8.2-13.9-8.6-21.4-1.4
	C87.8,62.9,83,67.5,78,71.9c-6.4,5.7-7.7,9.9-3.9,17.5c2.5,5.2,5.8,10,9.1,14.8c7.6,11.1,15.4,22.1,23.2,33c1.4,1.9,1.2,3.1-0.5,4.6
	c-5.6,5.2-11.3,10.4-16.6,15.8c-9.4,9.6-18.6,19.4-27.9,29.1c-3.2,3.4-4.5,7.5-3.3,11.9c0.8,3,2.2,6.1,4.1,8.6
	c6.9,8.9,14,17.6,21.3,26.1c5.3,6.2,15.4,6.3,21.1,0.4c4-4.2,7.3-9,11-13.4c10-11.9,20.1-23.7,30.5-36c5.8,6.7,10.9,12.7,16.2,18.6
	c10.9,12.2,22.7,23.5,36.2,32.7c2.6,1.8,6.4,2.9,9.6,2.8c5.8-0.2,10.8-3,14.2-7.7c5.9-8.1,10.7-16.8,13.3-26.7
	c2.6-10-0.1-17.4-8.6-23.7c-11.6-8.6-22.5-18.1-33.6-27.4c-3-2.5-5.6-5.4-8.5-8.3c0.5-0.5,1.1-1,1.6-1.5
	c10.3-9.7,20.4-19.1,30.3-28.7c1.1-1.1,2.2-2.1,3.3-3.2c17.5-17,34.9-34.1,52.3-51.2c0.3-0.3,0.6-0.6,0.9-0.9
	c0.2-0.2,0.4-0.4,0.7-0.6C277.8,54.5,279.1,49.8,277.9,44.2z"/>
</svg>
