<?xml version="1.0" encoding="utf-8"?>
<!-- Generator: Adobe Illustrator 24.0.0, SVG Export Plug-In . SVG Version: 6.00 Build 0)  -->
<svg version="1.1" id="Layer_1" xmlns="http://www.w3.org/2000/svg" xmlns:xlink="http://www.w3.org/1999/xlink" x="0px" y="0px"
	 viewBox="0 0 300 300" style="enable-background:new 0 0 300 300;" xml:space="preserve">
<style type="text/css">
	.st0{fill:#F2F2F2;}
	.st1{fill:#A6ACBE;}
</style>
<circle class="st0" cx="150" cy="150" r="150"/>
<g>
	<g>
		<g>
			<path class="st1" d="M127.3,157.9c-1,0-2.1-0.4-2.8-1.3c-3.7-4.2-6.2-8.1-7.7-12.3c-4.1-11.2-2.5-23.6,4.3-33.4
				c6.7-9.6,17.1-15.1,28.7-15.1l0,0c10.2,0,19.9,4.6,26.6,12.5c1.4,1.6,1.2,4-0.5,5.4c-1.6,1.4-4,1.2-5.4-0.5
				c-5.3-6.2-12.8-9.8-20.8-9.8l0,0c-9,0-17.2,4.3-22.4,11.8c-5.4,7.7-6.6,17.6-3.4,26.4c1.2,3.3,3.2,6.5,6.3,9.9
				c1.4,1.6,1.3,4-0.3,5.4C129.1,157.6,128.2,157.9,127.3,157.9z"/>
		</g>
		<g>
			<path class="st1" d="M159.5,182.6h-0.1c-2.3,0-4.7,0-7,0h-5.5h-6.3c-5.6,0-8-2.4-8.2-8.1v-1.3c0-1.4-0.1-2.8-0.2-4.1
				c0-0.7-0.1-1.3-0.3-2c-0.4-2,0.9-4.1,2.9-4.5s4.1,0.8,4.5,2.9c0.2,1,0.4,2,0.4,3.1c0.1,1.5,0.1,2.9,0.2,4.4v1.3
				c0,0.3,0,0.5,0,0.7c0.2,0,0.4,0,0.6,0h6.2h5.5c2.3,0,4.5,0,6.8,0c0.1-0.6,0.1-1.1,0-1.6c-0.4-8.5,2.5-15.3,8.4-20.3
				c0.2-0.2,0.4-0.4,0.5-0.6c0.2-0.2,0.4-0.5,0.6-0.7c5.7-5.9,8.4-13,8.2-21.6c0-1.7-0.3-3.4-0.6-5.1c-0.5-2,0.8-4.1,2.9-4.5
				c2.1-0.5,4.1,0.8,4.5,2.9c0.5,2.1,0.7,4.4,0.8,6.6c0.3,10.6-3.2,19.7-10.3,27.1l-0.4,0.4c-0.4,0.5-0.9,1-1.4,1.4
				c-4.2,3.5-6,8-5.7,14.2c0,1,0,1.9-0.1,2.9C166.3,180.1,163.5,182.6,159.5,182.6z"/>
		</g>
	</g>
	<g>
		<path class="st1" d="M162.8,193.4h-26.7c-2.1,0-3.8-1.7-3.8-3.8s1.7-3.8,3.8-3.8h26.7c2.1,0,3.8,1.7,3.8,3.8
			S164.9,193.4,162.8,193.4z"/>
	</g>
	<g>
		<path class="st1" d="M156.2,204.3h-13.6c-2.1,0-3.8-1.7-3.8-3.8s1.7-3.8,3.8-3.8h13.6c2.1,0,3.8,1.7,3.8,3.8
			S158.3,204.3,156.2,204.3z"/>
	</g>
	<g>
		<path class="st1" d="M115.3,171.4c-1,0-2-0.4-2.8-1.2c-1.4-1.5-1.4-3.9,0.1-5.4l69.5-66.2c1.5-1.4,3.9-1.4,5.4,0.1
			c1.4,1.5,1.4,3.9-0.1,5.4l-69.5,66.2C117.2,170.9,116.3,171.4,115.3,171.4z"/>
	</g>
</g>
</svg>
