<?xml version="1.0" encoding="utf-8"?>
<!-- Generator: Adobe Illustrator 24.0.0, SVG Export Plug-In . SVG Version: 6.00 Build 0)  -->
<svg version="1.1" id="Layer_1" xmlns="http://www.w3.org/2000/svg" xmlns:xlink="http://www.w3.org/1999/xlink" x="0px" y="0px"
	 viewBox="0 0 300 300" style="enable-background:new 0 0 300 300;" xml:space="preserve">
<style type="text/css">
	.st0{fill:#FCDFE0;}
	.st1{fill:#ED1C24;}
</style>
<circle class="st0" cx="150" cy="150.4" r="150"/>
<g>
	<g>
		<path class="st1" d="M140.1,182.9h0.1c2.3,0,4.6,0,6.8,0h5.2h6.8c5.6,0,8-2.4,8.2-8.1v-1.3c0-1.4,0.1-2.8,0.2-4.1
			c0.2-3.3,1.6-6.1,4.2-8.8c4.4-4.4,8.8-9.3,11.2-16c4.1-11.1,2.5-23.6-4.3-33.3c-6.7-9.6-17.1-15.1-28.7-15.1l0,0
			c-18.7,0-34.4,15.3-34.9,34.1c-0.3,10.6,3.2,19.7,10.3,27.1l0.4,0.4c0.4,0.5,0.9,1,1.4,1.4c4.2,3.5,6,8,5.7,14.2
			c0,1,0,1.9,0.1,2.9C133.3,180.4,136,182.9,140.1,182.9z M144.1,175.3c-1.2,0-2.4,0-3.6,0c-0.1-0.6-0.1-1.1,0-1.6
			c0.4-8.5-2.5-15.3-8.4-20.3c-0.2-0.2-0.4-0.4-0.5-0.6c-0.2-0.2-0.4-0.5-0.6-0.7c-5.7-5.9-8.4-13-8.2-21.6
			c0.4-14.7,12.6-26.7,27.3-26.7l0,0c9,0,17.2,4.3,22.4,11.8c5.4,7.7,6.6,17.6,3.4,26.4c-2,5.3-5.7,9.5-9.5,13.2
			c-3.9,3.9-6.1,8.5-6.4,13.7c-0.1,1.5-0.1,2.9-0.2,4.4v1.3c0,0.3,0,0.5,0,0.7c-0.2,0-0.4,0-0.6,0h-6.8h-2.3l0,0h-2.9
			C146.1,175.3,145.1,175.3,144.1,175.3z"/>
	</g>
	<g>
		<path class="st1" d="M136.6,193.7h26.7c2.1,0,3.8-1.7,3.8-3.8s-1.7-3.8-3.8-3.8h-26.7c-2.1,0-3.8,1.7-3.8,3.8
			S134.5,193.7,136.6,193.7z"/>
	</g>
	<g>
		<path class="st1" d="M143.2,204.6h13.6c2.1,0,3.8-1.7,3.8-3.8s-1.7-3.8-3.8-3.8h-13.6c-2.1,0-3.8,1.7-3.8,3.8
			S141.1,204.6,143.2,204.6z"/>
	</g>
	<g>
		<g>
			<path class="st1" d="M150,147.8c2.1,0,3.8-1.7,3.8-3.8v-25c0-2.1-1.7-3.8-3.8-3.8s-3.8,1.7-3.8,3.8v25
				C146.2,146.1,147.9,147.8,150,147.8z"/>
		</g>
		<g>
			<path class="st1" d="M150,161.3c2.1,0,3.8-1.7,3.8-3.8V157c0-2.1-1.7-3.8-3.8-3.8s-3.8,1.7-3.8,3.8v0.5
				C146.2,159.6,147.9,161.3,150,161.3z"/>
		</g>
	</g>
</g>
</svg>
