<?xml version="1.0" encoding="utf-8"?>
<!-- Generator: Adobe Illustrator 24.0.0, SVG Export Plug-In . SVG Version: 6.00 Build 0)  -->
<svg version="1.1" id="Layer_1" xmlns="http://www.w3.org/2000/svg" xmlns:xlink="http://www.w3.org/1999/xlink" x="0px" y="0px"
	 viewBox="0 0 300 300" style="enable-background:new 0 0 300 300;" xml:space="preserve">
<style type="text/css">
	.st0{fill:#F2F2F2;}
	.st1{fill:#A6ACBE;}
</style>
<g>
	<circle class="st0" cx="150" cy="150.5" r="150"/>
	<g>
		<g>
			<path class="st1" d="M160,183c0,0-0.1,0-0.1,0c-2.3,0-4.6,0-6.8,0l-5.2,0l-6.8,0c-5.6,0-8-2.4-8.2-8.1l0-1.3
				c0-1.4-0.1-2.8-0.2-4.1c-0.2-3.3-1.6-6.1-4.2-8.8c-4.4-4.4-8.8-9.3-11.2-16c-4.1-11.1-2.5-23.6,4.3-33.3
				c6.7-9.6,17.1-15.1,28.7-15.1c0,0,0,0,0,0c18.7,0,34.4,15.3,34.9,34.1c0.3,10.6-3.2,19.7-10.3,27.1l-0.4,0.4
				c-0.4,0.5-0.9,1-1.4,1.4c-4.2,3.5-6,8-5.7,14.2c0,1,0,1.9-0.1,2.9C166.8,180.5,164.1,183,160,183z M156,175.4c1.2,0,2.4,0,3.6,0
				c0.1-0.6,0.1-1.1,0-1.6c-0.4-8.5,2.5-15.3,8.4-20.3c0.2-0.2,0.4-0.4,0.5-0.6c0.2-0.2,0.4-0.5,0.6-0.7c5.7-5.9,8.4-13,8.2-21.6
				c-0.4-14.7-12.6-26.7-27.3-26.7c0,0,0,0,0,0c-9,0-17.2,4.3-22.4,11.8c-5.4,7.7-6.6,17.6-3.4,26.4c2,5.3,5.7,9.5,9.5,13.2
				c3.9,3.9,6.1,8.5,6.4,13.7c0.1,1.5,0.1,2.9,0.2,4.4l0,1.3c0,0.3,0,0.5,0,0.7c0.2,0,0.4,0,0.6,0l6.8,0l2.3,0h0l2.9,0
				C154,175.4,155,175.4,156,175.4z"/>
		</g>
		<g>
			<path class="st1" d="M163.4,193.9h-26.7c-2.1,0-3.8-1.7-3.8-3.8c0-2.1,1.7-3.8,3.8-3.8h26.7c2.1,0,3.8,1.7,3.8,3.8
				C167.2,192.2,165.5,193.9,163.4,193.9z"/>
		</g>
		<g>
			<path class="st1" d="M156.8,204.7h-13.6c-2.1,0-3.8-1.7-3.8-3.8s1.7-3.8,3.8-3.8h13.6c2.1,0,3.8,1.7,3.8,3.8
				S158.9,204.7,156.8,204.7z"/>
		</g>
	</g>
</g>
</svg>
