<?xml version="1.0" encoding="utf-8"?>
<!-- Generator: Adobe Illustrator 24.0.0, SVG Export Plug-In . SVG Version: 6.00 Build 0)  -->
<svg version="1.1" id="Layer_1" xmlns="http://www.w3.org/2000/svg" xmlns:xlink="http://www.w3.org/1999/xlink" x="0px" y="0px"
	 viewBox="0 0 300 300" style="enable-background:new 0 0 300 300;" xml:space="preserve">
<style type="text/css">
	.st0{fill:#F5EEFF;}
	.st1{fill:#9073C6;}
</style>
<g>
	<circle class="st0" cx="150" cy="150.5" r="150"/>
	<g>
		<path class="st1" d="M198.3,173.6c-4.4-4.5-8.8-8.9-13.2-13.3c-1.4-1.4-3.3-1.5-4.7-0.2c-1.3,1.3-1.4,3.3,0,4.7
			c0.7,0.8,1.5,1.5,2.3,2.3c1.7,1.7,3.4,3.4,5.2,5.3h-27.6c-0.6-0.1-1.1-0.1-1.7,0h-18.1c-2.1,0-3.8,1.7-3.8,3.8s1.7,3.8,3.8,3.8
			h11.3c-2.2,2.9-4.7,5.9-7.5,9.1c-1.4,1.6-2.8,3.1-4.3,4.7c-5.8-6.2-10.8-12.3-15.3-18.6c-7.1-9.9-11.5-18.1-14.3-26.4
			c-3.3-9.8-3.1-18,0.6-25.8c5.8-12.1,19.3-19.3,32.9-17.6c13.7,1.7,25,11.9,27.5,24.8c1.3,7,0.3,14.1-3.5,23.1
			c-0.7,1.8-1.6,3.6-2.4,5.3c-0.9,1.9-0.2,4.2,1.7,5.1c1.9,0.9,4.2,0.2,5.1-1.7c0.9-1.9,1.8-3.8,2.6-5.7c4.3-10.3,5.6-19.1,3.9-27.5
			c-3.1-16.4-16.8-28.8-34-31c-16.8-2.1-33.5,6.9-40.7,21.8c-4.6,9.5-4.9,19.8-1,31.5c3,9.1,7.8,17.9,15.3,28.4
			c5.4,7.6,11.6,14.9,18.8,22.4c0.7,0.7,1.7,1.2,2.7,1.2c0,0,0,0,0.1,0c1,0,2-0.5,2.8-1.2l2.3-2.5c1.7-1.8,3.3-3.6,4.8-5.3
			c4.5-5.2,8.1-9.7,11.3-14.1h26.6c-2.4,2.4-4.8,4.7-7.2,7.1c-1.6,1.6-1.7,3.5-0.3,4.9c1.4,1.4,3.3,1.3,4.9-0.2
			c4.3-4.3,8.6-8.6,12.9-12.9C200,177.2,200.1,175.4,198.3,173.6z"/>
		<path class="st1" d="M119.5,136.9c0,11.2,9.1,20.4,20.3,20.4c0,0,0.1,0,0.1,0c5.4,0,10.5-2.1,14.4-5.9c3.9-3.9,6-9,6-14.5
			c0-5.5-2.2-10.7-6.1-14.6c-3.9-3.9-9.1-5.9-14.4-5.9C128.6,116.6,119.5,125.7,119.5,136.9z M140,124.1c3.3,0,6.4,1.3,8.9,3.7
			c2.5,2.5,3.9,5.7,3.9,9.2c0,3.4-1.3,6.7-3.8,9.1c-2.4,2.4-5.8,3.8-9.1,3.7c-7,0-12.7-5.8-12.7-12.8c0-7,5.7-12.8,12.7-12.9
			C139.9,124.1,139.9,124.1,140,124.1z"/>
	</g>
</g>
</svg>
