<?xml version="1.0" encoding="utf-8"?>
<!-- Generator: Adobe Illustrator 24.0.0, SVG Export Plug-In . SVG Version: 6.00 Build 0)  -->
<svg version="1.1" id="Layer_1" xmlns="http://www.w3.org/2000/svg" xmlns:xlink="http://www.w3.org/1999/xlink" x="0px" y="0px"
	 viewBox="0 0 300 300" style="enable-background:new 0 0 300 300;" xml:space="preserve">
<style type="text/css">
	.st0{fill:#E7F2E8;}
	.st1{fill:#28B34B;}
</style>
<g>
	<circle class="st0" cx="150" cy="150" r="150"/>
	<g>
		<g>
			<g>
				<path class="st1" d="M151.4,193.3h9.7c2.1,0,3.7-1.6,3.8-3.7c0-0.5,0.1-1.1,0.2-1.8c0.1-0.2,0.1-0.4,0.1-0.6l0.1-0.9
					c0.2-1.4,0.5-2.9,0.6-3.7c1.2-5.1,4.1-9.8,8.9-14.7c10.3-10.4,13-26.2,6.7-39.2c-6.7-13.8-20.6-21.4-36.3-19.7
					c-13.6,1.5-25.5,12.2-28.9,26.1l0,0c-3.1,12.4-0.1,23.6,8.6,32.4c6.7,6.8,9.8,13.6,10.2,22.1c0.1,2,1.8,3.7,3.8,3.7l3.1,0
					c3.1,0,6.1,0,9,0C151.1,193.3,151.3,193.3,151.4,193.3z M157.7,185.7h-5.8c-0.2,0-0.4,0-0.5,0c-3,0-6,0-9.1,0
					c-1.1-8.8-5-16.3-12-23.5c-6.8-7-9.1-15.5-6.7-25.3l0,0c2.6-10.7,12.1-19.3,22.4-20.4c12.6-1.4,23.4,4.4,28.7,15.4
					c4.9,10.1,2.8,22.4-5.2,30.5c-5.8,5.9-9.3,11.9-10.9,18.5c-0.2,1-0.5,2.7-0.8,4.4C157.8,185.3,157.7,185.5,157.7,185.7z"/>
			</g>
			<g>
				<path class="st1" d="M135.7,205.9h29.2c2.1,0,3.8-1.7,3.8-3.8s-1.7-3.8-3.8-3.8h-29.2c-2.1,0-3.8,1.7-3.8,3.8
					S133.6,205.9,135.7,205.9z"/>
			</g>
			<g>
				<path class="st1" d="M141.5,218.5h17.6c2.1,0,3.8-1.7,3.8-3.8s-1.7-3.8-3.8-3.8h-17.6c-2.1,0-3.8,1.7-3.8,3.8
					S139.4,218.5,141.5,218.5z"/>
			</g>
		</g>
		<g>
			<g>
				<path class="st1" d="M148.7,102.1c2.1,0,3.8-1.7,3.8-3.8V85.3c0-2.1-1.7-3.8-3.8-3.8c-2.1,0-3.8,1.7-3.8,3.8v12.9
					C144.9,100.4,146.6,102.1,148.7,102.1z"/>
			</g>
			<g>
				<path class="st1" d="M179.7,113.8c1,0,1.9-0.4,2.7-1.1l9.1-9.1c1.5-1.5,1.5-3.9,0-5.4c-1.5-1.5-3.9-1.5-5.4,0l-9.1,9.1
					c-1.5,1.5-1.5,3.9,0,5.4C177.8,113.5,178.7,113.8,179.7,113.8z"/>
			</g>
			<g>
				<path class="st1" d="M193.3,144.1h12.9c2.1,0,3.8-1.7,3.8-3.8c0-2.1-1.7-3.8-3.8-3.8h-12.9c-2.1,0-3.8,1.7-3.8,3.8
					C189.5,142.4,191.2,144.1,193.3,144.1z"/>
			</g>
			<g>
				<path class="st1" d="M93.8,146.6h12.9c2.1,0,3.8-1.7,3.8-3.8s-1.7-3.8-3.8-3.8H93.8c-2.1,0-3.8,1.7-3.8,3.8
					S91.7,146.6,93.8,146.6z"/>
			</g>
			<g>
				<path class="st1" d="M118.5,115.6c1,0,1.9-0.4,2.7-1.1c1.5-1.5,1.5-3.9,0-5.4L112,100c-1.5-1.5-3.9-1.5-5.4,0s-1.5,3.9,0,5.4
					l9.1,9.1C116.6,115.3,117.5,115.6,118.5,115.6z"/>
			</g>
		</g>
	</g>
</g>
</svg>
