<?xml version="1.0" encoding="utf-8"?>
<!-- Generator: Adobe Illustrator 24.0.0, SVG Export Plug-In . SVG Version: 6.00 Build 0)  -->
<svg version="1.1" id="Layer_1" xmlns="http://www.w3.org/2000/svg" xmlns:xlink="http://www.w3.org/1999/xlink" x="0px" y="0px"
	 viewBox="0 0 551.76 190.69" style="enable-background:new 0 0 551.76 190.69;" xml:space="preserve">
<style type="text/css">
	.st0{fill:#EB1E27;}
	.st1{fill:#FFFFFF;}
</style>
<g>
	<g>
		<path class="st0" d="M344.6,0v96.13h-22.38l-42.43-51.22v51.22h-26.64V0h22.38l42.43,51.22V0H344.6z"/>
		<path class="st0" d="M378.93,0h27.19v74.57h45.87v21.56h-73.06V0z"/>
		<path class="st0" d="M489.33,21.56h-29.53V0h86.1v21.56h-29.39v74.57h-27.19V21.56z"/>
	</g>
	<g>
		<path class="st0" d="M253.83,189.51c-3.22-1.16-5.76-2.67-7.6-4.53l2.44-5.56c1.75,1.71,4,3.1,6.75,4.17
			c2.74,1.07,5.56,1.6,8.46,1.6c3.82,0,6.67-0.7,8.56-2.1c1.89-1.4,2.83-3.27,2.83-5.6c0-1.71-0.52-3.1-1.55-4.17
			c-1.03-1.07-2.3-1.89-3.82-2.46s-3.65-1.21-6.42-1.93c-3.47-0.9-6.26-1.81-8.39-2.71c-2.13-0.9-3.95-2.29-5.46-4.17
			c-1.51-1.88-2.27-4.41-2.27-7.59c0-2.66,0.65-5.06,1.94-7.2c1.29-2.14,3.26-3.85,5.89-5.13c2.63-1.28,5.9-1.92,9.81-1.92
			c2.72,0,5.4,0.38,8.03,1.14c2.63,0.76,4.89,1.85,6.78,3.28l-2.17,5.71c-1.93-1.33-3.99-2.34-6.19-3.03
			c-2.19-0.69-4.34-1.03-6.45-1.03c-3.73,0-6.53,0.74-8.39,2.21c-1.87,1.47-2.8,3.38-2.8,5.71c0,1.71,0.53,3.1,1.58,4.17
			c1.05,1.07,2.36,1.9,3.92,2.5c1.56,0.59,3.67,1.22,6.35,1.89c3.47,0.9,6.25,1.81,8.36,2.71c2.11,0.9,3.92,2.28,5.43,4.14
			c1.51,1.85,2.27,4.35,2.27,7.49c0,2.62-0.66,5-1.97,7.17c-1.32,2.16-3.31,3.88-5.99,5.13c-2.68,1.26-5.97,1.89-9.87,1.89
			C260.4,191.26,257.05,190.68,253.83,189.51z"/>
		<path class="st0" d="M340.61,190.69l-0.07-36.37l-16.65,30.31h-3.03l-16.65-30.09v36.16h-6.32v-49.92h5.4l19.22,35.09l18.96-35.09
			h5.4l0.07,49.92H340.61z"/>
		<path class="st0" d="M396.69,178.21H372.2l-5.07,12.48h-6.78l20.87-49.92h6.52l20.93,49.92h-6.91L396.69,178.21z M394.39,172.5
			l-9.94-24.46l-9.94,24.46H394.39z"/>
		<path class="st0" d="M452.9,190.69l-9.94-15.33c-1.23,0.1-2.19,0.14-2.9,0.14h-11.39v15.19h-6.58v-49.92h17.97
			c5.97,0,10.66,1.55,14.08,4.64c3.42,3.09,5.13,7.34,5.13,12.76c0,3.85-0.88,7.13-2.63,9.84c-1.76,2.71-4.26,4.68-7.5,5.92
			l10.93,16.76H452.9z M449.41,166.51c2.19-1.95,3.29-4.73,3.29-8.34c0-3.61-1.1-6.38-3.29-8.31c-2.19-1.93-5.38-2.89-9.54-2.89
			h-11.19v22.46h11.19C444.04,169.43,447.22,168.46,449.41,166.51z"/>
		<path class="st0" d="M485.02,146.97h-15.8v-6.2h38.11v6.2h-15.8v43.72h-6.52V146.97z"/>
		<path class="st0" d="M523.89,189.51c-3.22-1.16-5.76-2.67-7.6-4.53l2.44-5.56c1.75,1.71,4,3.1,6.75,4.17
			c2.74,1.07,5.56,1.6,8.46,1.6c3.82,0,6.67-0.7,8.56-2.1c1.89-1.4,2.83-3.27,2.83-5.6c0-1.71-0.52-3.1-1.55-4.17
			c-1.03-1.07-2.3-1.89-3.82-2.46s-3.65-1.21-6.42-1.93c-3.47-0.9-6.26-1.81-8.39-2.71c-2.13-0.9-3.95-2.29-5.46-4.17
			c-1.51-1.88-2.27-4.41-2.27-7.59c0-2.66,0.65-5.06,1.94-7.2c1.29-2.14,3.26-3.85,5.89-5.13c2.63-1.28,5.9-1.92,9.81-1.92
			c2.72,0,5.4,0.38,8.03,1.14c2.63,0.76,4.89,1.85,6.78,3.28l-2.17,5.71c-1.93-1.33-3.99-2.34-6.19-3.03
			c-2.19-0.69-4.34-1.03-6.45-1.03c-3.73,0-6.53,0.74-8.39,2.21c-1.87,1.47-2.8,3.38-2.8,5.71c0,1.71,0.53,3.1,1.58,4.17
			c1.05,1.07,2.36,1.9,3.92,2.5c1.56,0.59,3.67,1.22,6.35,1.89c3.47,0.9,6.25,1.81,8.36,2.71c2.11,0.9,3.92,2.28,5.43,4.14
			c1.51,1.85,2.27,4.35,2.27,7.49c0,2.62-0.66,5-1.97,7.17c-1.32,2.16-3.31,3.88-5.99,5.13c-2.68,1.26-5.97,1.89-9.87,1.89
			C530.46,191.26,527.11,190.68,523.89,189.51z"/>
	</g>
	<g>
		<g>
			<path class="st0" d="M163.79,168.9c3.22-0.64,5.32-3.77,4.69-6.99c-0.31-1.56-1.21-2.91-2.53-3.79c-0.99-0.67-2.13-1.01-3.3-1.01
				c-0.39,0-0.78,0.04-1.17,0.12c-3.22,0.64-5.32,3.77-4.69,6.99C157.43,167.43,160.57,169.53,163.79,168.9z"/>
			<path class="st0" d="M162.44,22.9c-3.25,0.49-5.49,3.53-5,6.77c0.49,3.25,3.53,5.49,6.77,5c3.25-0.49,5.49-3.53,5-6.77
				C168.72,24.66,165.68,22.42,162.44,22.9z"/>
			<path class="st0" d="M161.05,133.96c3.22-0.64,5.32-3.77,4.69-6.99c-0.31-1.56-1.21-2.91-2.53-3.79
				c-0.99-0.67-2.13-1.01-3.3-1.01c-0.39,0-0.78,0.04-1.17,0.12c-3.22,0.64-5.32,3.77-4.69,6.99
				C154.7,132.49,157.83,134.59,161.05,133.96z"/>
			<path class="st0" d="M191.26,53.2V0h-92.1L41.32,57.83c0.94,1.56,1.5,3.38,1.5,5.34c0,5.72-4.65,10.37-10.37,10.37
				s-10.37-4.65-10.37-10.37S26.73,52.8,32.45,52.8c1.95,0,3.78,0.55,5.34,1.5L92.08,0H60.27L37.24,23.03
				c0.94,1.56,1.49,3.38,1.49,5.33c0,5.72-4.65,10.37-10.37,10.37s-10.37-4.65-10.37-10.37s4.65-10.37,10.37-10.37
				c1.96,0,3.78,0.56,5.35,1.5L53.2,0H0v92.1l57.74,57.74c0.85-0.51,1.78-0.91,2.79-1.17c5.54-1.42,11.2,1.93,12.62,7.47
				c1.42,5.54-1.93,11.2-7.47,12.62c-0.86,0.22-1.72,0.33-2.57,0.33c-4.62,0-8.85-3.12-10.05-7.8c-0.71-2.79-0.22-5.61,1.16-7.9
				L0,99.18v31.81l23.35,23.35c0.76-0.42,1.57-0.76,2.45-0.99c5.54-1.42,11.2,1.93,12.62,7.47c1.42,5.54-1.94,11.2-7.47,12.62h0
				c-0.86,0.22-1.72,0.33-2.57,0.33c-4.62,0-8.85-3.12-10.04-7.8c-0.75-2.92-0.16-5.87,1.37-8.22L0,138.05v53.2h92.1l58.52-58.52
				c-0.4-0.81-0.71-1.69-0.89-2.61c-1.11-5.61,2.55-11.07,8.16-12.18c2.72-0.54,5.48,0.02,7.78,1.56c2.3,1.54,3.86,3.89,4.4,6.6
				c1.11,5.61-2.55,11.07-8.16,12.18c-0.67,0.13-1.35,0.2-2.01,0.2c-2.2,0-4.29-0.71-6.01-1.94l-54.71,54.71h32.33l22.28-22.8
				c-0.62-1.02-1.08-2.16-1.32-3.39c-1.11-5.61,2.55-11.07,8.16-12.18c2.72-0.54,5.48,0.02,7.78,1.56s3.86,3.89,4.4,6.6
				c1.11,5.61-2.55,11.07-8.16,12.18c-0.67,0.13-1.35,0.2-2.01,0.2c-1.9,0-3.71-0.53-5.28-1.46l-19.29,19.29h53.2v-92.1L131.8,39.69
				c-0.63,0.22-1.28,0.39-1.96,0.49c-0.52,0.08-1.05,0.12-1.57,0.12c-2.2,0-4.33-0.7-6.14-2.03c-2.23-1.64-3.68-4.06-4.09-6.8
				c-0.41-2.74,0.27-5.47,1.91-7.7c1.64-2.23,4.06-3.68,6.8-4.09c2.74-0.41,5.47,0.27,7.7,1.91c2.23,1.64,3.68,4.06,4.09,6.8
				c0.41,2.74-0.27,5.47-1.91,7.7c-0.19,0.26-0.4,0.51-0.62,0.76l55.24,55.24V60.27l-22.6-22.6c-1.13,0.68-2.41,1.16-3.79,1.37
				c-0.52,0.08-1.04,0.12-1.55,0.12c-5.04,0-9.47-3.69-10.25-8.83c-0.85-5.65,3.06-10.94,8.71-11.8c5.66-0.85,10.95,3.06,11.8,8.71
				c0.37,2.48-0.17,4.9-1.38,6.89L191.26,53.2z"/>
			<path class="st0" d="M131.83,25.14c-1.03-0.76-2.26-1.16-3.52-1.16c-0.3,0-0.6,0.02-0.9,0.07c-1.57,0.24-2.96,1.07-3.9,2.35
				s-1.33,2.85-1.1,4.42c0.24,1.57,1.07,2.96,2.35,3.9s2.85,1.33,4.42,1.1c1.57-0.24,2.96-1.07,3.9-2.35s1.33-2.85,1.1-4.42
				C133.94,27.47,133.11,26.09,131.83,25.14z"/>
			<path class="st0" d="M29.84,169.16L29.84,169.16c1.54-0.39,2.83-1.36,3.65-2.73s1.04-2.97,0.65-4.51
				c-0.69-2.69-3.11-4.48-5.77-4.48c-0.49,0-0.98,0.06-1.47,0.19c-3.18,0.81-5.1,4.06-4.29,7.24
				C23.42,168.05,26.66,169.97,29.84,169.16z"/>
			<circle class="st0" cx="32.45" cy="63.17" r="5.95"/>
			<circle class="st0" cx="28.36" cy="28.36" r="5.95"/>
			<path class="st0" d="M64.58,164.49c3.18-0.81,5.1-4.06,4.29-7.24c-0.69-2.69-3.11-4.48-5.77-4.48c-0.49,0-0.98,0.06-1.47,0.19
				c-3.18,0.81-5.1,4.06-4.29,7.24C58.15,163.38,61.4,165.3,64.58,164.49z"/>
		</g>
		<g>
			<path class="st1" d="M84.76,75.3h-6.08c-2.33,0-4.35,1.62-4.85,3.9l-3.84,17.52C69.93,96.66,58.1,77.16,58.1,77.16
				c-1.01-1.64-3.13-2.26-5.3-1.54c-1.5,0.5-2.8,1.57-3.61,2.89c-0.38,0.6-0.65,1.25-0.79,1.93l-0.07,0.31L45.5,94.4l-4.45,21.55
				h6.14c2.33,0,4.35-1.62,4.85-3.9l3.73-16.94l0,0c0.02,0.02,11.73,19.01,11.73,19.01c0.73,1.19,2.04,1.84,3.52,1.84
				c0.57,0,1.18-0.1,1.78-0.3c0.64-0.21,1.23-0.53,1.78-0.92c1.31-0.94,2.27-2.33,2.6-3.84L84.76,75.3z"/>
			<path class="st1" d="M150.21,75.33h-31.67c-2.36,0-4.39,1.66-4.86,3.96l-1.26,6.12h13.31l-6.45,30.54h6.1
				c2.34,0,4.37-1.64,4.86-3.93l5.66-26.61h8.15c2.34,0,4.37-1.64,4.86-3.93L150.21,75.33z"/>
			<path class="st1" d="M109.79,105.84H93.38l5.22-24.53c0.66-3.09-1.7-6-4.86-6h-3.99l-5.53,25.88l-0.06,0.28l0,0l-1.12,5.23
				c-1.02,4.76,2.61,9.25,7.48,9.25h5.21l-0.01-0.01l18.86-0.02l0.71-3.25C116.06,109.16,113.39,105.84,109.79,105.84z"/>
			<g>
				<path class="st1" d="M139.75,108.71c0.04,0,0.07,0.01,0.11,0.01c0.12,0.01,0.24,0.02,0.37,0.04c0.2,0.03,0.4,0.09,0.59,0.15
					c0.37,0.13,0.71,0.32,1.02,0.56c0.17,0.13,0.32,0.27,0.46,0.43c0.2,0.22,0.37,0.46,0.51,0.72c0.12,0.23,0.22,0.47,0.29,0.72
					c0.05,0.17,0.09,0.35,0.11,0.53c0.02,0.18,0.03,0.36,0.03,0.54c-0.01,0.18-0.02,0.36-0.05,0.53c-0.05,0.28-0.13,0.55-0.24,0.8
					c-0.11,0.26-0.25,0.5-0.42,0.73c-0.14,0.19-0.3,0.37-0.48,0.53c-0.21,0.19-0.44,0.36-0.69,0.49c-0.3,0.16-0.61,0.28-0.94,0.36
					c-0.13,0.03-0.27,0.05-0.41,0.07c-0.16,0.02-0.31,0.03-0.47,0.02c-0.12,0-0.24-0.01-0.35-0.03c-0.36-0.04-0.71-0.14-1.04-0.29
					c-0.29-0.13-0.56-0.29-0.8-0.49c-0.17-0.14-0.34-0.3-0.48-0.47c-0.22-0.26-0.41-0.55-0.55-0.86c-0.12-0.27-0.21-0.55-0.26-0.84
					c-0.02-0.11-0.03-0.22-0.04-0.33c-0.02-0.17-0.02-0.35-0.01-0.52c0.02-0.31,0.08-0.62,0.17-0.92c0.13-0.39,0.31-0.74,0.56-1.06
					c0.15-0.2,0.32-0.38,0.51-0.54c0.28-0.24,0.58-0.43,0.91-0.58c0.21-0.09,0.43-0.17,0.65-0.22c0.13-0.03,0.27-0.05,0.4-0.07
					c0.08-0.01,0.16-0.01,0.24-0.02c0.01,0,0.02,0,0.03,0C139.57,108.71,139.66,108.71,139.75,108.71z M136.55,112.33
					c0,1.69,1.37,3.06,3.06,3.07c1.69,0,3.07-1.36,3.07-3.06c0-1.68-1.35-3.07-3.06-3.07C137.93,109.27,136.55,110.62,136.55,112.33
					z"/>
				<path class="st1" d="M138.5,110.66c0.01,0,0.02,0,0.02,0c0.48,0,0.96,0,1.45,0c0.18,0,0.36,0.02,0.52,0.08
					c0.11,0.04,0.22,0.08,0.32,0.15c0.06,0.04,0.12,0.1,0.17,0.16c0.08,0.09,0.14,0.19,0.17,0.31c0.02,0.11,0.05,0.22,0.05,0.33
					c0,0.09-0.01,0.19-0.03,0.28c-0.02,0.08-0.04,0.15-0.06,0.23c-0.04,0.11-0.12,0.19-0.21,0.27c-0.14,0.12-0.3,0.19-0.48,0.23
					c-0.04,0.01-0.07,0.02-0.11,0.03c0.27,0.42,0.54,0.84,0.81,1.27c-0.01,0-0.02,0-0.03,0c-0.17,0-0.34,0-0.51,0
					c-0.02,0-0.03-0.01-0.04-0.02c-0.22-0.34-0.44-0.68-0.65-1.03c-0.04-0.06-0.07-0.11-0.11-0.17c0-0.01-0.02-0.01-0.02-0.01
					c-0.23,0-0.46,0-0.69,0c0,0-0.01,0-0.01,0c0,0.41,0,0.82,0,1.22c-0.01,0-0.02,0-0.03,0c-0.17,0-0.34,0-0.51,0
					c-0.02,0-0.03-0.01-0.03-0.03c0-1.1,0-2.19,0-3.29C138.5,110.68,138.5,110.67,138.5,110.66z M139.06,112.3c0.01,0,0.01,0,0.01,0
					c0.28,0,0.56,0,0.84,0c0.05,0,0.11-0.01,0.16-0.02c0.06-0.01,0.13-0.04,0.19-0.06c0.05-0.02,0.11-0.03,0.15-0.07
					c0.09-0.07,0.17-0.16,0.2-0.28c0.03-0.11,0.03-0.23,0.01-0.34c-0.02-0.09-0.05-0.17-0.12-0.22c-0.06-0.05-0.12-0.09-0.19-0.13
					c-0.04-0.02-0.09-0.04-0.14-0.05c-0.03-0.01-0.06-0.01-0.1-0.01c-0.07-0.01-0.13-0.02-0.2-0.02c-0.27,0-0.53,0-0.8,0
					c-0.01,0-0.02,0-0.02,0C139.06,111.5,139.06,111.9,139.06,112.3z"/>
			</g>
		</g>
	</g>
</g>
</svg>
