<?xml version="1.0" encoding="utf-8"?>
<!-- Generator: Adobe Illustrator 24.0.0, SVG Export Plug-In . SVG Version: 6.00 Build 0)  -->
<svg version="1.1" id="Layer_1" xmlns="http://www.w3.org/2000/svg" xmlns:xlink="http://www.w3.org/1999/xlink" x="0px" y="0px"
	 viewBox="0 0 281.5 281.5" style="enable-background:new 0 0 281.5 281.5;" xml:space="preserve">
<style type="text/css">
	.st0{fill:#EC1E27;}
</style>
<title>logo dương</title>
<circle class="st0" cx="239.3" cy="243.7" r="5.8"/>
<circle class="st0" cx="34.6" cy="233.6" r="5.8"/>
<circle class="st0" cx="248.6" cy="45.1" r="5.8"/>
<circle class="st0" cx="44.8" cy="36.7" r="5.8"/>
<circle class="st0" cx="242" cy="190.8" r="5.8"/>
<circle class="st0" cx="91.7" cy="239.9" r="5.8"/>
<circle class="st0" cx="43.8" cy="87.5" r="5.8"/>
<path class="st0" d="M53.8,83.4c0.6,1.4,0.8,2.9,0.8,4.4c0,6.7-5.4,12.1-12.1,12.1s-12.1-5.4-12.1-12.1c0-6.7,5.4-12.1,12.1-12.1
	c2.3,0,4.6,0.7,6.5,1.9L126.7,0H86.5l-32,32c0.7,1.6,1.1,3.3,1.1,5c0,6.7-5.4,12.1-12.1,12.1S31.4,43.7,31.4,37s5.4-12.1,12.1-12.1
	c2.1,0,4.1,0.6,6,1.6L76,0H0v144.6l85,85c1.7-0.9,3.6-1.4,5.4-1.4c6.7,0,12.1,5.4,12.1,12.1s-5.4,12.1-12.1,12.1
	s-12.1-5.4-12.1-12.1c0-1.9,0.5-3.8,1.4-5.5L0,155v40.3l27.9,27.9c1.7-0.9,3.5-1.3,5.4-1.3c6.7,0,12.1,5.4,12.1,12.1
	c0,6.7-5.4,12.1-12.1,12.1s-12.1-5.4-12.1-12.1c0-1.9,0.5-3.8,1.4-5.6L0,205.8v75.8h144.6l85.2-85.2c-0.8-1.7-1.2-3.4-1.2-5.2
	c0-6.7,5.4-12.1,12.1-12.1c6.7,0,12.1,5.4,12.1,12.1s-5.4,12.1-12.1,12.1c-2,0-4-0.5-5.8-1.5L155,281.5h40.3l32-32
	c-0.9-1.8-1.4-3.6-1.4-5.5c0-6.7,5.4-12.1,12.1-12.1c6.7,0,12.1,5.4,12.1,12.1s-5.4,12.1-12.1,12.1c-1.9,0-3.7-0.5-5.5-1.4
	l-26.7,26.7h75.8V137.2l-84.4-84.4c-1.4,0.5-2.8,0.8-4.3,0.8c-6.7,0-12.1-5.4-12.1-12.1s5.4-12.1,12.1-12.1S205,34.8,205,41.5
	c0,2.4-0.7,4.7-2,6.7l78.6,78.6V86.5l-29.8-29.8c-1.4,0.6-2.9,0.9-4.4,0.9c-6.7,0-12.1-5.4-12.1-12.1s5.4-12.1,12.1-12.1
	s12.1,5.4,12.1,12.1c0,2.3-0.7,4.6-1.9,6.5L281.5,76V0H137.2L53.8,83.4z M204.3,126.3c1.4-1.5,3.8-1.5,5.3,0l16.2,15.8
	c0.7,0.7,1.1,1.6,1.1,2.6c0,1-0.4,1.9-1.1,2.6l-50.6,50c-0.7,0.7-1.7,1.1-2.6,1.1c-1,0-1.9-0.4-2.6-1.1l-50.6-50
	c-0.7-0.7-1.1-1.6-1.1-2.6s0.4-1.9,1.1-2.6l15.7-15.7c1.4-1.4,3.8-1.5,5.3-0.1l31,29.6c1.1,1,2.8,1,3.8-0.1L204.3,126.3z
	 M137.6,62.3c1,0,1.9,0.4,2.6,1.1l49.3,49.9c1.4,1.5,1.4,3.8,0,5.3l-13.7,13.8c-1.4,1.5-3.8,1.5-5.3,0.1l-33.4-31.3
	c-1.1-1-2.8-1-3.8,0.1l-40.1,41.3c-1,1.1-1,2.8,0,3.8l31.1,31.3c0.7,0.7,1.1,1.6,1.1,2.6c0,1-0.4,1.9-1.2,2.6l-15.7,14.4
	c-0.7,0.7-1.6,1-2.6,1c-1,0-2-0.4-2.7-1.2l-47.6-49.9c-1.4-1.5-1.4-3.9,0.1-5.3L135,63.4C135.7,62.7,136.6,62.3,137.6,62.3
	C137.6,62.3,137.6,62.3,137.6,62.3z"/>
<circle class="st0" cx="194.2" cy="41.1" r="5.8"/>
</svg>
