<?xml version="1.0" encoding="utf-8"?>
<!-- Generator: Adobe Illustrator 24.0.0, SVG Export Plug-In . SVG Version: 6.00 Build 0)  -->
<svg version="1.1" id="Layer_1" xmlns="http://www.w3.org/2000/svg" xmlns:xlink="http://www.w3.org/1999/xlink" x="0px" y="0px"
	 viewBox="0 0 300 300" style="enable-background:new 0 0 300 300;" xml:space="preserve">
<style type="text/css">
	.st0{fill:#FFEADF;}
	.st1{fill:#F89500;}
	.st2{fill-rule:evenodd;clip-rule:evenodd;fill:#F89500;}
</style>
<circle class="st0" cx="150" cy="151.3" r="150"/>
<g>
	<path class="st1" d="M181.1,134.1c-3.2,0-4.8,0-5.9,1c-1,1-1,2.6-1,5.9v20.6c0,3.2,0,4.8,1,5.9c1,1,2.6,1,5.9,1h3.4
		c3.2,0,4.8,0,5.9-1c1-1,1-2.6,1-5.9V141c0-3.2,0-4.8-1-5.9c-1-1-2.6-1-5.9-1H181.1z"/>
	<path class="st2" d="M95.5,135.4c1.3-1.3,3.3-1.3,7.3-1.3h2.9v34.3h-2.9c-4,0-6.1,0-7.3-1.3c-1.3-1.3-1.3-3.3-1.3-7.3v-17.1
		C94.3,138.6,94.3,136.6,95.5,135.4z"/>
	<path class="st1" d="M193.3,128.8c1.9,0,3.4,1.5,3.4,3.4v38c0,1.9-1.5,3.4-3.4,3.4h-66.6c-1.9,0-3.4-1.5-3.4-3.4v-38
		c0-1.9,1.5-3.4,3.4-3.4H193.3 M193.3,119.8h-66.6c-6.9,0-12.4,5.6-12.4,12.4v38c0,6.9,5.6,12.4,12.4,12.4h66.6
		c6.9,0,12.4-5.6,12.4-12.4v-38C205.7,125.4,200.1,119.8,193.3,119.8L193.3,119.8z"/>
</g>
</svg>
