<?xml version="1.0" encoding="utf-8"?>
<!-- Generator: Adobe Illustrator 24.0.0, SVG Export Plug-In . SVG Version: 6.00 Build 0)  -->
<svg version="1.1" id="Layer_1" xmlns="http://www.w3.org/2000/svg" xmlns:xlink="http://www.w3.org/1999/xlink" x="0px" y="0px"
	 viewBox="0 0 300 300" style="enable-background:new 0 0 300 300;" xml:space="preserve">
<style type="text/css">
	.st0{opacity:0.15;fill:#5EA760;}
	.st1{fill:#01AD1D;}
</style>
<circle class="st0" cx="150" cy="150.5" r="150"/>
<g>
	<path class="st1" d="M138.5,169.2h-17.3c-10.3,0-18.7-8.4-18.7-18.7c0-10.3,8.4-18.7,18.7-18.7h17.3c2.4,0,4.3-1.9,4.3-4.3
		c0-2.4-1.9-4.3-4.3-4.3h-17.3c-15.1,0-27.3,12.2-27.3,27.3s12.2,27.3,27.3,27.3h17.3c2.4,0,4.3-1.9,4.3-4.3
		C142.8,171.1,140.9,169.2,138.5,169.2z"/>
	<path class="st1" d="M122.7,150.5c0,2.4,1.9,4.3,4.3,4.3h46c2.4,0,4.3-1.9,4.3-4.3c0-2.4-1.9-4.3-4.3-4.3h-46
		C124.6,146.2,122.7,148.1,122.7,150.5z"/>
	<path class="st1" d="M178.8,123.2h-17.3c-2.4,0-4.3,1.9-4.3,4.3c0,2.4,1.9,4.3,4.3,4.3h17.3c10.3,0,18.7,8.4,18.7,18.7
		c0,10.3-8.4,18.7-18.7,18.7h-17.3c-2.4,0-4.3,1.9-4.3,4.3c0,2.4,1.9,4.3,4.3,4.3h17.3c15.1,0,27.3-12.2,27.3-27.3
		S193.9,123.2,178.8,123.2z"/>
</g>
</svg>
