<?xml version="1.0" encoding="utf-8"?>
<!-- Generator: Adobe Illustrator 24.0.0, SVG Export Plug-In . SVG Version: 6.00 Build 0)  -->
<svg version="1.1" id="Layer_1" xmlns="http://www.w3.org/2000/svg" xmlns:xlink="http://www.w3.org/1999/xlink" x="0px" y="0px"
	 viewBox="0 0 300 300" style="enable-background:new 0 0 300 300;" xml:space="preserve">
<style type="text/css">
	.st0{fill:#F2F2F2;}
	.st1{fill:#A6ACBE;}
</style>
<circle class="st0" cx="150" cy="150.9" r="150"/>
<g>
	<path class="st1" d="M177.4,124.1C177.5,124.1,177.5,124.1,177.4,124.1c14.8,0.1,26.8,12.1,26.8,26.8c0,14.8-12,26.8-26.8,26.8
		h-24.9c-2.3,0-4.1-1.8-4.1-4.1s1.8-4.1,4.1-4.1h24.9c10.2,0,18.5-8.3,18.5-18.5c0-10.1-8.3-18.6-18.5-18.6c-2.3,0-4.1-1.8-4.1-4.1
		C173.2,125.9,175.1,124.1,177.4,124.1z"/>
	<path class="st1" d="M122.5,124.1h24.9c2.3,0,4.1,1.8,4.1,4.1c0,2.3-1.8,4.1-4.1,4.1h-24.9c-10.2,0-18.5,8.3-18.5,18.5
		c0,10.1,8.3,18.5,18.5,18.5c2.3,0,4.1,1.8,4.1,4.1c0,2.3-1.8,4.1-4.1,4.1h-0.1c-14.7-0.1-26.7-12.1-26.7-26.8
		C95.7,136.1,107.7,124.1,122.5,124.1z"/>
	<path class="st1" d="M169.6,113.8c0.7,0,1.4,0.2,2,0.5c2,1.1,2.7,3.7,1.6,5.7l-36.8,66c-1.1,2-3.7,2.7-5.7,1.6
		c-2-1.1-2.7-3.7-1.6-5.7l36.8-66C166.7,114.5,168.1,113.8,169.6,113.8z"/>
</g>
</svg>
