<?xml version="1.0" encoding="utf-8"?>
<!-- Generator: Adobe Illustrator 24.0.0, SVG Export Plug-In . SVG Version: 6.00 Build 0)  -->
<svg version="1.1" id="Layer_1" xmlns="http://www.w3.org/2000/svg" xmlns:xlink="http://www.w3.org/1999/xlink" x="0px" y="0px"
	 viewBox="0 0 300 300" style="enable-background:new 0 0 300 300;" xml:space="preserve">
<style type="text/css">
	.st0{fill:#FCDFE0;}
	.st1{fill:none;stroke:#FF0000;stroke-width:9;stroke-linecap:round;stroke-linejoin:round;stroke-miterlimit:10;}
</style>
<circle class="st0" cx="150" cy="150.3" r="150"/>
<image style="overflow:visible;" width="79" height="104" xlink:href="54C3E7AA.jpg"  transform="matrix(3.9901 0 0 3.9901 -1812.0273 -204.6129)">
</image>
<path class="st1" d="M182.1,145.4c-4.3-10.1-18.8-39.7-18.8-39.7c-3.1-5.6-9.2-2.8-9.4,1.4l-1.5,27.8c-0.3,5.4-4.7,9.6-10.1,9.6h0
	c-5.6,0-10.1-4.5-10.1-10.1v-0.1v0c-0.7-7.3-8.1-5.8-9.7-3.1c-5.6,9.9-8,20.7-8.6,28c-0.1,0.7,0,2.7,0,2.7c0,19.9,16.1,36,36,36
	s36-16.1,36-36C186,156,183.7,149.3,182.1,145.4z"/>
</svg>
