<?xml version="1.0" encoding="utf-8"?>
<!-- Generator: Adobe Illustrator 24.0.0, SVG Export Plug-In . SVG Version: 6.00 Build 0)  -->
<svg version="1.1" id="Layer_1" xmlns="http://www.w3.org/2000/svg" xmlns:xlink="http://www.w3.org/1999/xlink" x="0px" y="0px"
	 viewBox="0 0 300 300" style="enable-background:new 0 0 300 300;" xml:space="preserve">
<style type="text/css">
	.st0{fill:#E3F4FF;enable-background:new    ;}
	.st1{fill:#4CB8FF;}
</style>
<circle class="st0" cx="150" cy="150.5" r="150"/>
<g>
	<g>
		<path class="st1" d="M177.6,188.8c-2.5,0-4.5-2-4.5-4.5v-76.1h-46.1v76.1c0,2.5-2,4.5-4.5,4.5s-4.5-2-4.5-4.5v-80.6
			c0-2.5,2-4.5,4.5-4.5h55.1c2.5,0,4.5,2,4.5,4.5v80.6C182.1,186.8,180,188.8,177.6,188.8z"/>
	</g>
</g>
<g>
	<g>
		<rect x="140.4" y="167.4" class="st1" width="19.3" height="19.5"/>
	</g>
</g>
<g>
	<g>
		<path class="st1" d="M159.7,152h-19.3c-2.5,0-4.5-2-4.5-4.5s2-4.5,4.5-4.5h19.3c2.5,0,4.5,2,4.5,4.5S162.1,152,159.7,152z"/>
	</g>
</g>
<g>
	<g>
		<path class="st1" d="M159.7,132.1h-19.3c-2.5,0-4.5-2-4.5-4.5s2-4.5,4.5-4.5h19.3c2.5,0,4.5,2,4.5,4.5S162.1,132.1,159.7,132.1z"
			/>
	</g>
</g>
</svg>
