<?xml version="1.0" encoding="utf-8"?>
<!-- Generator: Adobe Illustrator 24.0.0, SVG Export Plug-In . SVG Version: 6.00 Build 0)  -->
<svg version="1.1" id="Layer_1" xmlns="http://www.w3.org/2000/svg" xmlns:xlink="http://www.w3.org/1999/xlink" x="0px" y="0px"
	 viewBox="0 0 300 300" style="enable-background:new 0 0 300 300;" xml:space="preserve">
<style type="text/css">
	.st0{fill:#F2F2F2;}
	.st1{fill:#A6ACBE;}
</style>
<g>
	<circle class="st0" cx="150.8" cy="150" r="150"/>
</g>
<g>
	<g>
		<path class="st1" d="M181,92.5h-58.7c-2.1,0-3.8-1.7-3.8-3.8s1.7-3.8,3.8-3.8H181c2.1,0,3.8,1.7,3.8,3.8S183.1,92.5,181,92.5z"/>
	</g>
	<g>
		<g>
			<path class="st1" d="M130.6,115.8c-2.1,0-3.8-1.7-3.8-3.8V88.7c0-2.1,1.7-3.8,3.8-3.8s3.8,1.7,3.8,3.8V112
				C134.4,114.1,132.7,115.8,130.6,115.8z"/>
		</g>
		<g>
			<path class="st1" d="M172.7,115.8c-2.1,0-3.8-1.7-3.8-3.8V88.7c0-2.1,1.7-3.8,3.8-3.8s3.8,1.7,3.8,3.8V112
				C176.5,114.1,174.8,115.8,172.7,115.8z"/>
		</g>
	</g>
	<g>
		<path class="st1" d="M151.6,115.8c-2.1,0-3.8-1.7-3.8-3.8V88.7c0-2.1,1.7-3.8,3.8-3.8s3.8,1.7,3.8,3.8V112
			C155.4,114.1,153.7,115.8,151.6,115.8z"/>
	</g>
	<g>
		<path class="st1" d="M117.4,181.1c-2.1,0-3.8-1.7-3.8-3.8v-43.6c0-14.1,11.5-25.5,25.5-25.5h25c9.1,0,17.5,4.9,22.1,12.7
			c1.1,1.8,0.4,4.1-1.4,5.2c-1.8,1-4.1,0.4-5.2-1.4c-3.2-5.5-9.2-8.9-15.5-8.9h-25c-9.9,0-17.9,8.1-17.9,17.9v43.6
			C121.2,179.4,119.5,181.1,117.4,181.1z"/>
	</g>
	<g>
		<path class="st1" d="M175.4,202.2H128c-5.9,0-11.1-3.5-13.3-9c-0.8-1.9,0.2-4.2,2.1-4.9c1.9-0.8,4.2,0.2,4.9,2.1
			c1,2.6,3.5,4.2,6.2,4.2h47.4c3.7,0,6.7-3,6.7-6.7v-54.1c0-2.1,1.7-3.8,3.8-3.8s3.8,1.7,3.8,3.8v54.1
			C189.7,195.8,183.2,202.2,175.4,202.2z"/>
	</g>
	<g>
		<path class="st1" d="M175.3,215.1h-47.2c-2.1,0-3.8-1.7-3.8-3.8v-12.9c0-2.1,1.7-3.8,3.8-3.8h47.2c2.1,0,3.8,1.7,3.8,3.8v12.9
			C179,213.4,177.3,215.1,175.3,215.1z M131.8,207.5h39.6v-5.3h-39.6V207.5z"/>
	</g>
	<g>
		<path class="st1" d="M102.7,193.4c-1.1,0-2.2-0.5-2.9-1.4c-1.3-1.6-1.1-4,0.5-5.3l90.2-75c1.6-1.3,4-1.1,5.3,0.5s1.1,4-0.5,5.3
			l-90.2,75C104.4,193.1,103.5,193.4,102.7,193.4z"/>
	</g>
</g>
</svg>
