<?xml version="1.0" encoding="utf-8"?>
<!-- Generator: Adobe Illustrator 24.0.0, SVG Export Plug-In . SVG Version: 6.00 Build 0)  -->
<svg version="1.1" id="Layer_1" xmlns="http://www.w3.org/2000/svg" xmlns:xlink="http://www.w3.org/1999/xlink" x="0px" y="0px"
	 viewBox="0 0 300 300" style="enable-background:new 0 0 300 300;" xml:space="preserve">
<style type="text/css">
	.st0{fill:#E3F4FF;}
	.st1{fill:#4CB8FF;}
</style>
<g>
	<circle class="st0" cx="149.7" cy="150" r="150"/>
</g>
<g>
	<g>
		<path class="st1" d="M112,212.5c-13.4,0-24.3-10.9-24.3-24.3c0-13.4,10.9-24.3,24.3-24.3s24.3,10.9,24.3,24.3
			C136.3,201.6,125.4,212.5,112,212.5z M112,171.5c-9.2,0-16.7,7.5-16.7,16.7s7.5,16.7,16.7,16.7s16.7-7.5,16.7-16.7
			S121.2,171.5,112,171.5z"/>
	</g>
	<g>
		<g>
			<path class="st1" d="M183.1,144.9C183,144.9,183,144.9,183.1,144.9c-7.8,0-15-3-20.4-8.5c-11.2-11.2-11.1-29.4,0.1-40.6
				c7.7-7.6,18.9-10.3,29.2-6.9c1.3,0.4,2.2,1.4,2.5,2.7c0.3,1.3-0.1,2.6-1,3.6l-13.4,13.3l2.3,7.1l8.4,3.4l13.3-13.2
				c0.9-0.9,2.3-1.3,3.6-1c1.3,0.3,2.3,1.3,2.7,2.5c3.3,10.3,0.6,21.5-7.1,29.2C197.9,142,190.7,144.9,183.1,144.9z M182.9,95.1
				c-5.4,0-10.7,2.2-14.7,6.2c-8.3,8.2-8.3,21.6-0.1,29.9c4,4,9.3,6.2,14.9,6.2c0,0,0,0,0.1,0c5.6,0,10.9-2.2,14.9-6.1
				c4-4,6.2-9.2,6.2-14.7l-9.8,9.7c-1.1,1.1-2.7,1.4-4.1,0.8l-12.3-5c-1-0.4-1.8-1.3-2.2-2.3l-3.6-11c-0.4-1.4-0.1-2.9,0.9-3.9
				L182.9,95.1z"/>
		</g>
		<g>
			<path class="st1" d="M191.7,127.4c-0.5,0-1-0.1-1.4-0.3l-12.3-5c-1-0.4-1.8-1.3-2.2-2.3l-3.6-11c-0.4-1.4-0.1-2.9,0.9-3.9
				l15.1-15c1.5-1.5,3.9-1.5,5.4,0c1.5,1.5,1.5,3.9,0,5.4l-13.4,13.3l2.3,7.1l8.4,3.4l13.3-13.2c1.5-1.5,3.9-1.5,5.4,0
				c1.5,1.5,1.5,3.9,0,5.4l-15.1,15C193.7,127,192.7,127.4,191.7,127.4z"/>
		</g>
	</g>
	<g>
		<path class="st1" d="M119.7,170.8c-1,0-1.9-0.4-2.7-1.1c-1.5-1.5-1.5-3.9,0-5.4l40.7-40.7c1.5-1.5,3.9-1.5,5.4,0s1.5,3.9,0,5.4
			l-40.7,40.7C121.7,170.4,120.7,170.8,119.7,170.8z"/>
	</g>
	<g>
		<path class="st1" d="M133.6,184.3c-1,0-1.9-0.4-2.7-1.1c-1.5-1.5-1.5-3.9,0-5.4l40.9-40.9c1.5-1.5,3.9-1.5,5.4,0
			c1.5,1.5,1.5,3.9,0,5.4l-40.9,40.9C135.5,183.9,134.6,184.3,133.6,184.3z"/>
	</g>
	<g>
		<polygon class="st1" points="119.9,192.7 119.9,183.7 112,179.1 104.1,183.7 104.1,192.7 112,197.3 		"/>
	</g>
</g>
</svg>
