<?xml version="1.0" encoding="utf-8"?>
<!-- Generator: Adobe Illustrator 24.0.0, SVG Export Plug-In . SVG Version: 6.00 Build 0)  -->
<svg version="1.1" id="Layer_1" xmlns="http://www.w3.org/2000/svg" xmlns:xlink="http://www.w3.org/1999/xlink" x="0px" y="0px"
	 viewBox="0 0 300 300" style="enable-background:new 0 0 300 300;" xml:space="preserve">
<style type="text/css">
	.st0{fill:#E3F4FF;}
	.st1{fill:#4CB8FF;}
</style>
<g>
	<circle class="st0" cx="150.5" cy="150" r="150"/>
</g>
<g>
	<g>
		<path class="st1" d="M150.5,208.5c-0.6,0-1.2-0.1-1.8-0.4l-46.5-24.8c-1.2-0.7-2-1.9-2-3.4v-61.5c0-1.3,0.7-2.5,1.8-3.2
			c1.1-0.7,2.5-0.8,3.7-0.2l46.5,22.7c1.3,0.6,2.1,2,2.1,3.4v63.7c0,1.3-0.7,2.6-1.8,3.3C151.8,208.3,151.2,208.5,150.5,208.5z
			 M107.8,177.6l38.9,20.7v-55l-38.9-18.9V177.6z"/>
	</g>
	<g>
		<path class="st1" d="M150.5,208.5c-0.7,0-1.4-0.2-2-0.5c-1.1-0.7-1.8-1.9-1.8-3.3v-63.7c0-1.5,0.8-2.8,2.1-3.4l46.5-22.7
			c1.2-0.6,2.6-0.5,3.7,0.2c1.1,0.7,1.8,1.9,1.8,3.2v61.5c0,1.4-0.8,2.7-2,3.4l-46.5,24.8C151.7,208.4,151.1,208.5,150.5,208.5z
			 M154.3,143.4v55l38.9-20.7v-53.2L154.3,143.4z"/>
	</g>
	<g>
		<path class="st1" d="M150.2,145.1c-0.6,0-1.2-0.1-1.7-0.4l-46.2-22.9c-1.3-0.6-2.1-1.9-2.1-3.4c0-1.4,0.8-2.7,2.1-3.4l44.6-23.1
			c1.1-0.5,2.3-0.6,3.4-0.1l48.4,23.1c1.3,0.6,2.2,2,2.2,3.4s-0.8,2.8-2.1,3.4l-46.8,22.9C151.3,144.9,150.8,145.1,150.2,145.1z
			 M112.4,118.3l37.8,18.7l38-18.6l-39.6-18.9L112.4,118.3z"/>
	</g>
	<g>
		<path class="st1" d="M126.2,149.3c-2.1,0-3.8-1.7-3.8-3.8v-16.1c0-1.4,0.8-2.8,2.1-3.4l46.1-22.8c1.9-0.9,4.2-0.2,5.1,1.7
			c0.9,1.9,0.2,4.2-1.7,5.1l-44,21.8v13.7C130,147.6,128.3,149.3,126.2,149.3z"/>
	</g>
</g>
</svg>
