<?xml version="1.0" encoding="utf-8"?>
<!-- Generator: Adobe Illustrator 24.0.0, SVG Export Plug-In . SVG Version: 6.00 Build 0)  -->
<svg version="1.1" id="Layer_1" xmlns="http://www.w3.org/2000/svg" xmlns:xlink="http://www.w3.org/1999/xlink" x="0px" y="0px"
	 viewBox="0 0 300 300" style="enable-background:new 0 0 300 300;" xml:space="preserve">
<style type="text/css">
	.st0{fill:#FCDFE0;}
	.st1{fill:#ED1C24;}
</style>
<g>
	<g>
		<circle class="st0" cx="150.6" cy="150" r="150"/>
	</g>
	<g>
		<g>
			<g>
				<g>
					<path class="st1" d="M218.1,158.5c-0.1,2.1-1.8,3.8-3.9,3.7l-25.1-0.7c-2.1-0.1-3.8-1.8-3.7-3.9c0.1-2.1,1.8-3.8,3.9-3.7
						l25.1,0.7C216.5,154.7,218.2,156.4,218.1,158.5z"/>
				</g>
			</g>
			<g>
				<g>
					<path class="st1" d="M231.5,158.9c-0.1,2.1-1.8,3.8-3.9,3.7h-0.5c-2.1-0.1-3.8-1.8-3.7-3.9c0.1-2.1,1.8-3.8,3.9-3.7h0.5
						C229.9,155,231.6,156.8,231.5,158.9z"/>
				</g>
			</g>
		</g>
		<g>
			<g>
				<g>
					<path class="st1" d="M179.9,92.5h-58.7c-2.1,0-3.8-1.7-3.8-3.8c0-2.1,1.7-3.8,3.8-3.8h58.7c2.1,0,3.8,1.7,3.8,3.8
						S182,92.5,179.9,92.5z"/>
				</g>
				<g>
					<g>
						<path class="st1" d="M129.5,115.8c-2.1,0-3.8-1.7-3.8-3.8V88.7c0-2.1,1.7-3.8,3.8-3.8s3.8,1.7,3.8,3.8V112
							C133.3,114.1,131.6,115.8,129.5,115.8z"/>
					</g>
					<g>
						<path class="st1" d="M171.6,115.8c-2.1,0-3.8-1.7-3.8-3.8V88.7c0-2.1,1.7-3.8,3.8-3.8s3.8,1.7,3.8,3.8V112
							C175.4,114.1,173.7,115.8,171.6,115.8z"/>
					</g>
				</g>
				<g>
					<path class="st1" d="M150.6,115.8c-2.1,0-3.8-1.7-3.8-3.8V88.7c0-2.1,1.7-3.8,3.8-3.8s3.8,1.7,3.8,3.8V112
						C154.4,114.1,152.7,115.8,150.6,115.8z"/>
				</g>
				<g>
					<path class="st1" d="M174.3,202.2h-47.4c-7.9,0-14.3-6.4-14.3-14.3v-54.1c0-14.1,11.5-25.5,25.5-25.5h25
						c14.1,0,25.5,11.5,25.5,25.5v10c0,2.1-1.7,3.8-3.8,3.8s-3.8-1.7-3.8-3.8v-10c0-9.9-8.1-17.9-17.9-17.9h-25
						c-9.9,0-17.9,8.1-17.9,17.9v54.1c0,3.7,3,6.7,6.7,6.7h47.4c3.7,0,6.7-3,6.7-6.7v-16.5c0-2.1,1.7-3.8,3.8-3.8s3.8,1.7,3.8,3.8
						v16.5C188.6,195.8,182.2,202.2,174.3,202.2z"/>
				</g>
				<g>
					<path class="st1" d="M175,215.1h-47.2c-2.1,0-3.8-1.7-3.8-3.8v-12.9c0-2.1,1.7-3.8,3.8-3.8H175c2.1,0,3.8,1.7,3.8,3.8v12.9
						C178.8,213.4,177.1,215.1,175,215.1z M131.6,207.5h39.6v-5.3h-39.6V207.5z"/>
				</g>
			</g>
		</g>
		<g>
			<path class="st1" d="M154.7,154.3c-1.7,0-3.3-1.2-3.7-3c-0.5-2,0.8-4.1,2.9-4.5l59.6-13.3c2.1-0.4,4.1,0.8,4.5,2.9
				c0.5,2-0.8,4.1-2.9,4.5l-59.6,13.3C155.3,154.2,155,154.3,154.7,154.3z"/>
		</g>
		<g>
			<path class="st1" d="M214.3,180.4c-0.2,0-0.4,0-0.7-0.1L154,169.7c-2.1-0.4-3.4-2.3-3.1-4.4c0.4-2.1,2.3-3.5,4.4-3.1l59.6,10.6
				c2.1,0.4,3.4,2.3,3.1,4.4C217.7,179.1,216.1,180.4,214.3,180.4z"/>
		</g>
	</g>
</g>
</svg>
