<?xml version="1.0" encoding="utf-8"?>
<!-- Generator: Adobe Illustrator 24.0.0, SVG Export Plug-In . SVG Version: 6.00 Build 0)  -->
<svg version="1.1" id="Layer_1" xmlns="http://www.w3.org/2000/svg" xmlns:xlink="http://www.w3.org/1999/xlink" x="0px" y="0px"
	 viewBox="0 0 300 300" style="enable-background:new 0 0 300 300;" xml:space="preserve">
<style type="text/css">
	.st0{fill:#FFF4E1;}
	.st1{fill:#F7BC00;}
</style>
<g>
	<g>
		<circle class="st0" cx="150" cy="150" r="150"/>
	</g>
	<g>
		<g>
			<g>
				<path class="st1" d="M179.3,92.5h-58.7c-2.1,0-3.8-1.7-3.8-3.8c0-2.1,1.7-3.8,3.8-3.8h58.7c2.1,0,3.8,1.7,3.8,3.8
					S181.4,92.5,179.3,92.5z"/>
			</g>
			<g>
				<g>
					<path class="st1" d="M129,115.8c-2.1,0-3.8-1.7-3.8-3.8V88.7c0-2.1,1.7-3.8,3.8-3.8s3.8,1.7,3.8,3.8V112
						C132.8,114.1,131.1,115.8,129,115.8z"/>
				</g>
				<g>
					<path class="st1" d="M171,115.8c-2.1,0-3.8-1.7-3.8-3.8V88.7c0-2.1,1.7-3.8,3.8-3.8s3.8,1.7,3.8,3.8V112
						C174.8,114.1,173.1,115.8,171,115.8z"/>
				</g>
			</g>
			<g>
				<path class="st1" d="M150,115.8c-2.1,0-3.8-1.7-3.8-3.8V88.7c0-2.1,1.7-3.8,3.8-3.8s3.8,1.7,3.8,3.8V112
					C153.8,114.1,152.1,115.8,150,115.8z"/>
			</g>
			<g>
				<path class="st1" d="M173.7,202.2h-47.4c-7.9,0-14.3-6.4-14.3-14.3v-54.1c0-14.1,11.5-25.5,25.5-25.5h25
					c14.1,0,25.5,11.5,25.5,25.5v54.1C188,195.8,181.6,202.2,173.7,202.2z M137.5,115.8c-9.9,0-17.9,8.1-17.9,17.9v54.1
					c0,3.7,3,6.7,6.7,6.7h47.4c3.7,0,6.7-3,6.7-6.7v-54.1c0-9.9-8.1-17.9-17.9-17.9L137.5,115.8L137.5,115.8z"/>
			</g>
			<g>
				<path class="st1" d="M174.5,215.1h-47.2c-2.1,0-3.8-1.7-3.8-3.8v-12.9c0-2.1,1.7-3.8,3.8-3.8h47.2c2.1,0,3.8,1.7,3.8,3.8v12.9
					C178.2,213.4,176.6,215.1,174.5,215.1z M131,207.5h39.6v-5.3H131V207.5z"/>
			</g>
		</g>
		<g>
			<path class="st1" d="M169.9,188.7h-39.8c-2.7,0-4.8-2.2-4.8-4.8v-6.2h49.4v6.2C174.7,186.5,172.5,188.7,169.9,188.7z"/>
		</g>
	</g>
</g>
</svg>
