<?xml version="1.0" encoding="utf-8"?>
<!-- Generator: Adobe Illustrator 24.0.0, SVG Export Plug-In . SVG Version: 6.00 Build 0)  -->
<svg version="1.1" id="Layer_1" xmlns="http://www.w3.org/2000/svg" xmlns:xlink="http://www.w3.org/1999/xlink" x="0px" y="0px"
	 viewBox="0 0 300 300" style="enable-background:new 0 0 300 300;" xml:space="preserve">
<style type="text/css">
	.st0{fill:#E3F4FF;}
	.st1{fill:#4CB8FF;}
</style>
<g>
	<g>
		<circle class="st0" cx="150.7" cy="150" r="150"/>
	</g>
	<g>
		<g>
			<path class="st1" d="M180.1,92.5h-58.7c-2.1,0-3.8-1.7-3.8-3.8c0-2.1,1.7-3.8,3.8-3.8h58.7c2.1,0,3.8,1.7,3.8,3.8
				C183.9,90.8,182.2,92.5,180.1,92.5z"/>
		</g>
		<g>
			<g>
				<path class="st1" d="M129.7,115.8c-2.1,0-3.8-1.7-3.8-3.8V88.7c0-2.1,1.7-3.8,3.8-3.8c2.1,0,3.8,1.7,3.8,3.8V112
					C133.5,114.1,131.8,115.8,129.7,115.8z"/>
			</g>
			<g>
				<path class="st1" d="M171.8,115.8c-2.1,0-3.8-1.7-3.8-3.8V88.7c0-2.1,1.7-3.8,3.8-3.8s3.8,1.7,3.8,3.8V112
					C175.6,114.1,173.9,115.8,171.8,115.8z"/>
			</g>
		</g>
		<g>
			<path class="st1" d="M150.7,115.8c-2.1,0-3.8-1.7-3.8-3.8V88.7c0-2.1,1.7-3.8,3.8-3.8c2.1,0,3.8,1.7,3.8,3.8V112
				C154.5,114.1,152.8,115.8,150.7,115.8z"/>
		</g>
		<path class="st1" d="M174.5,202.2H127c-7.9,0-14.3-6.4-14.3-14.3v-54.1c0-14.1,11.5-25.5,25.5-25.5h25c14.1,0,25.5,11.5,25.5,25.5
			v54.1C188.8,195.8,182.4,202.2,174.5,202.2z M138.3,115.8c-9.9,0-17.9,8.1-17.9,17.9v54.1c0,3.7,3,6.7,6.7,6.7h47.4
			c3.7,0,6.7-3,6.7-6.7v-54.1c0-9.9-8.1-17.9-17.9-17.9H138.3z"/>
		<g>
			<path class="st1" d="M174.4,215.1h-47.2c-2.1,0-3.8-1.7-3.8-3.8v-12.9c0-2.1,1.7-3.8,3.8-3.8h47.2c2.1,0,3.8,1.7,3.8,3.8v12.9
				C178.2,213.4,176.5,215.1,174.4,215.1z M130.9,207.5h39.6v-5.3h-39.6V207.5z"/>
		</g>
		<g>
			<path class="st1" d="M150.7,136.4c2.8,5.4,6.7,12.4,9.3,17.9c2.2,4.7,0.8,9.3-3,12.3c-3.6,2.8-8.6,2.9-12.4,0.1
				c-3.9-2.9-5.4-7.5-3.2-12.2C144,148.9,150.7,137,150.7,136.4z"/>
		</g>
	</g>
</g>
</svg>
