<?xml version="1.0" encoding="utf-8"?>
<!-- Generator: Adobe Illustrator 24.0.0, SVG Export Plug-In . SVG Version: 6.00 Build 0)  -->
<svg version="1.1" id="Layer_1" xmlns="http://www.w3.org/2000/svg" xmlns:xlink="http://www.w3.org/1999/xlink" x="0px" y="0px"
	 viewBox="0 0 300 300" style="enable-background:new 0 0 300 300;" xml:space="preserve">
<style type="text/css">
	.st0{fill:#4CB8FF;}
	.st1{fill:#FFFFFF;}
</style>
<path class="st0" d="M270.9,137.4h21.5c3.7,0,6.6-3,6.6-6.6s-3-6.6-6.6-6.6h-21.5c-0.4,0-0.9,0-1.3,0.1V98c0.4,0.1,0.8,0.1,1.3,0.1
	h21.5c3.7,0,6.6-3,6.6-6.6c0-3.7-3-6.6-6.6-6.6h-21.5c-0.4,0-0.9,0-1.3,0.1v-14c-0.4-3.4-2-6.5-4.4-9l-23.5-23.5
	c-2.3-2.3-5.2-3.8-8.4-4.3h-18.5c0-0.3,0.1-0.6,0.1-0.9V11.8c0-3.7-3-6.6-6.6-6.6c-3.7,0-6.6,3-6.6,6.6v21.5c0,0.3,0,0.6,0.1,0.9
	h-26.2c0-0.3,0.1-0.6,0.1-0.9V11.8c0-3.7-3-6.6-6.6-6.6c-3.7,0-6.6,3-6.6,6.6v21.5c0,0.3,0,0.6,0.1,0.9h-26.2c0-0.3,0.1-0.6,0.1-0.9
	V11.8c0-3.7-3-6.6-6.6-6.6c-3.7,0-6.6,3-6.6,6.6v21.5c0,0.3,0,0.6,0.1,0.9H97c0-0.3,0.1-0.6,0.1-0.9V11.8c0-3.7-3-6.6-6.6-6.6
	c-3.7,0-6.6,3-6.6,6.6v21.5c0,0.3,0,0.6,0.1,0.9H65.4c-3.1,0.5-6.1,2-8.4,4.3L33.5,62.1c-2.4,2.4-4,5.6-4.4,9v13.8H7.6
	c-3.7,0-6.6,3-6.6,6.6c0,3.7,3,6.6,6.6,6.6h21.5v26.1H7.6c-3.7,0-6.6,3-6.6,6.6s3,6.6,6.6,6.6h21.5v26.1H7.6c-3.7,0-6.6,3-6.6,6.6
	c0,3.7,3,6.6,6.6,6.6h21.5v26.1H7.6c-3.7,0-6.6,3-6.6,6.6s3,6.6,6.6,6.6h21.5v13.8c0.5,3.4,2,6.5,4.4,9L57,262.4
	c2.3,2.3,5.2,3.8,8.4,4.3h18.4c0,0,0,0,0,0v21.5c0,3.7,3,6.6,6.6,6.6c3.7,0,6.6-3,6.6-6.6v-21.5c0,0,0,0,0,0h26.1c0,0,0,0,0,0v21.5
	c0,3.7,3,6.6,6.6,6.6c3.7,0,6.6-3,6.6-6.6v-21.5c0,0,0,0,0,0h26.1c0,0,0,0,0,0v21.5c0,3.7,3,6.6,6.6,6.6c3.7,0,6.6-3,6.6-6.6v-21.5
	c0,0,0,0,0,0h26.1c0,0,0,0,0,0v21.5c0,3.7,3,6.6,6.6,6.6c3.7,0,6.6-3,6.6-6.6v-21.5c0,0,0,0,0,0h18.4c3.2-0.5,6.1-2,8.4-4.3
	l23.5-23.5c2.4-2.4,4-5.6,4.4-9v-14c0.4,0.1,0.8,0.1,1.3,0.1h21.5c3.7,0,6.6-3,6.6-6.6s-3-6.6-6.6-6.6h-21.5c-0.4,0-0.9,0-1.3,0.1
	v-26.3c0.4,0.1,0.8,0.1,1.3,0.1h21.5c3.7,0,6.6-3,6.6-6.6c0-3.7-3-6.6-6.6-6.6h-21.5c-0.4,0-0.9,0-1.3,0.1v-26.3
	C270.1,137.4,270.5,137.4,270.9,137.4z"/>
<g>
	<path class="st1" d="M220.5,252.4H78.2c-3.6,0-7.1-1.4-9.7-4l-20.6-20.6c-2.6-2.6-4-6-4-9.7V82.8c0-3.6,1.4-7.1,4-9.7l20.6-20.6
		c2.6-2.6,6-4,9.7-4h142.4c3.6,0,7.1,1.4,9.7,4l20.6,20.6c2.6,2.6,4,6,4,9.7v135.4c0,3.6-1.4,7.1-4,9.7l-20.6,20.6
		C227.6,251,224.2,252.4,220.5,252.4z M80.1,247.9h138.6c3.6,0,7.1-1.4,9.7-4l18-18c2.6-2.6,4-6,4-9.7V84.6c0-3.6-1.4-7.1-4-9.7
		l-18-18c-2.6-2.6-6-4-9.7-4H80.1c-3.6,0-7.1,1.4-9.7,4l-18,18c-2.6,2.6-4,6-4,9.7v131.7c0,3.6,1.4,7.1,4,9.7l18,18
		C73,246.5,76.4,247.9,80.1,247.9z"/>
</g>
<g>
	<g>
		<path class="st1" d="M116.4,193.8c0-1.9,0-3.8,0-5.6c0.1-0.3,0.2-0.6,0.2-0.9c1.2-9,5.4-16.1,12.6-21.5c0.7-0.5,1-1.1,1-2
			c0-5.4,0-10.7,0-16.1c0-17.3,0-34.6,0-51.9c0-13.4,13.8-22.1,25.5-16.1c6.6,3.4,9.8,9.1,9.8,16.5c0,22.5,0,45,0,67.4
			c0,1.2,0.3,1.9,1.3,2.7c9.7,8,13.8,18.2,11.5,30.5c-2.3,12.1-9.8,20.1-21.5,24c-2,0.7-4.2,0.9-6.3,1.4c-2,0-3.9,0-5.9,0
			c-0.3-0.1-0.5-0.2-0.8-0.2c-13.1-2.1-21.8-9.5-26.1-22.1C117.1,198,116.9,195.8,116.4,193.8z M136.4,133.7c7.8,0,15.5,0,23.3,0
			c0-0.7,0-1.2,0-1.8c0-11.8,0-23.7,0-35.5c0-0.7,0-1.4-0.1-2.1c-0.5-6.3-6.7-11.3-12.9-10.4c-6.2,0.9-10.4,5.6-10.4,12
			c0,12.2,0,24.4,0,36.5C136.3,132.8,136.3,133.1,136.4,133.7z"/>
	</g>
	<g>
		<path class="st1" d="M182.5,138.8c2.5,0,5.1,0,7.6,0c2.2,0,3.5,1.1,3.6,2.9c0,1.9-1.4,3.1-3.6,3.1c-5.2,0-10.3,0-15.5,0
			c-2.3,0-3.6-1.3-3.5-3.3c0.1-1.6,1.3-2.7,3.2-2.7C177,138.8,179.8,138.9,182.5,138.8z"/>
	</g>
	<g>
		<path class="st1" d="M182.3,161.8c-2.6,0-5.2,0-7.7,0c-2.2,0-3.5-1.1-3.5-3c0-1.8,1.3-3,3.5-3c5.2,0,10.4,0,15.6,0
			c2.1,0,3.5,1.3,3.4,3.1c0,1.8-1.3,2.9-3.4,2.9C187.6,161.8,185,161.8,182.3,161.8z"/>
	</g>
	<g>
		<path class="st1" d="M182.5,122c2.6,0,5.3,0,7.9,0c2,0,3.4,1.3,3.3,3c0,1.7-1.3,2.9-3.3,3c-5.3,0-10.7,0-16,0
			c-1.9,0-3.2-1.2-3.2-3c0-1.8,1.2-3,3.2-3C177,121.9,179.7,122,182.5,122z"/>
	</g>
	<g>
		<path class="st1" d="M182.6,88.2c2.6,0,5.2,0,7.7,0c2,0,3.4,1.2,3.3,3c0,1.8-1.4,3-3.4,3c-5.3,0-10.5,0-15.8,0
			c-2.1,0-3.4-1.1-3.4-2.9c0-1.9,1.3-3,3.4-3C177.2,88.2,179.9,88.2,182.6,88.2z"/>
	</g>
	<g>
		<path class="st1" d="M182.5,105.1c2.6,0,5.2,0,7.7,0c2.1,0,3.4,1.2,3.4,3c0,1.8-1.3,3-3.4,3c-5.3,0-10.6,0-15.9,0
			c-2,0-3.3-1.3-3.3-3.1c0-1.8,1.3-2.9,3.3-2.9C177.1,105.1,179.8,105.1,182.5,105.1z"/>
	</g>
</g>
</svg>
