<?xml version="1.0" encoding="utf-8"?>
<!-- Generator: Adobe Illustrator 24.0.0, SVG Export Plug-In . SVG Version: 6.00 Build 0)  -->
<svg version="1.1" id="Layer_1" xmlns="http://www.w3.org/2000/svg" xmlns:xlink="http://www.w3.org/1999/xlink" x="0px" y="0px"
	 viewBox="0 0 300 300" style="enable-background:new 0 0 300 300;" xml:space="preserve">
<style type="text/css">
	.st0{fill:#4CB8FF;}
	.st1{fill:#FFFFFF;}
</style>
<g>
	<path class="st0" d="M226.8,185.1V86.4c0-19.9-13.7-36.6-32.1-41.2V13.3h9.9c3.7,0,6.7-3,6.7-6.7c0-3.7-3-6.7-6.7-6.7H188H112H95.5
		c-3.7,0-6.7,3-6.7,6.7c0,3.7,3,6.7,6.7,6.7h9.9v31.8c-18.5,4.6-32.1,21.3-32.1,41.2v98.7h0c0,20.8,0,41.5,0,62.3
		c0,11.1,5.6,20.1,16.2,26.9c40.3,0.1,80.6,0.1,120.9,0c10.9-6.9,16.3-16.1,16.3-27.4c0-9.7,0-19.4,0-29.2
		C226.7,206.9,226.7,196,226.8,185.1L226.8,185.1z M181.3,43.9h-62.6V13.3h62.6V43.9z"/>
	<rect x="90.3" y="283.6" class="st0" width="119.5" height="16.4"/>
</g>
<g>
	<path class="st1" d="M150,222.2c-33.7,0-61.1-27.4-61.1-61.1S116.3,100,150,100s61.1,27.4,61.1,61.1S183.7,222.2,150,222.2z
		 M150,104.6c-31.2,0-56.5,25.4-56.5,56.5s25.4,56.5,56.5,56.5s56.5-25.4,56.5-56.5S181.2,104.6,150,104.6z"/>
</g>
<g>
	<path class="st1" d="M174.3,165.2c2.1,2.8,3.1,6.2,3.1,10.2c0,5.5-2,9.9-6,13c-4,3.1-9.4,4.7-16.4,4.7h-23.8
		c-1.8,0-3.2-0.5-4.2-1.5c-1-1-1.5-2.4-1.5-4.2v-53.9c0-1.8,0.5-3.2,1.5-4.2c1-1,2.4-1.5,4.2-1.5h22.9c6.8,0,12.1,1.5,15.9,4.5
		c3.9,3,5.8,7.2,5.8,12.5c0,3.4-0.9,6.4-2.7,9c-1.8,2.5-4.3,4.4-7.5,5.5C169.4,160.5,172.3,162.4,174.3,165.2z M137.2,155.4h15.1
		c8.2,0,12.3-3.1,12.3-9.1c0-3.1-1-5.4-3.1-6.8c-2-1.5-5.1-2.2-9.2-2.2h-15.1V155.4z M163.2,181.5c2-1.5,3-3.9,3-7.2
		c0-3.3-1-5.7-3-7.3s-5.1-2.4-9.4-2.4h-16.6v19.2h16.6C158.1,183.8,161.2,183.1,163.2,181.5z"/>
</g>
</svg>
