<?xml version="1.0" encoding="utf-8"?>
<!-- Generator: Adobe Illustrator 24.0.0, SVG Export Plug-In . SVG Version: 6.00 Build 0)  -->
<svg version="1.1" id="Layer_1" xmlns="http://www.w3.org/2000/svg" xmlns:xlink="http://www.w3.org/1999/xlink" x="0px" y="0px"
	 viewBox="0 0 300 300" style="enable-background:new 0 0 300 300;" xml:space="preserve">
<style type="text/css">
	.st0{fill:#4CB8FF;}
	.st1{fill:#FFFFFF;}
</style>
<g>
	<g>
		<path class="st0" d="M226.8,185.1V86.4c0-19.9-13.7-36.6-32.1-41.2V13.3h9.9c3.7,0,6.7-3,6.7-6.7s-3-6.7-6.7-6.7H188H112H95.5
			c-3.7,0-6.7,3-6.7,6.7s3,6.7,6.7,6.7h9.9v31.8c-18.5,4.6-32.1,21.3-32.1,41.2v98.7h0c0,20.8,0,41.5,0,62.3
			c0,11.1,5.6,20.1,16.2,26.9c40.3,0.1,80.6,0.1,120.9,0c10.9-6.9,16.3-16.1,16.3-27.4c0-9.7,0-19.4,0-29.2
			C226.7,206.9,226.7,196,226.8,185.1L226.8,185.1z M118.7,13.3h62.6v30.5h-62.6V13.3z"/>
	</g>
	<g>
		<rect x="90.3" y="283.6" class="st0" width="119.5" height="16.4"/>
	</g>
	<g>
		<path class="st1" d="M150,222.2c-33.7,0-61.1-27.4-61.1-61.1S116.3,100,150,100s61.1,27.4,61.1,61.1S183.7,222.2,150,222.2z
			 M150,104.6c-31.2,0-56.5,25.4-56.5,56.5s25.4,56.5,56.5,56.5s56.5-25.4,56.5-56.5S181.2,104.6,150,104.6z"/>
	</g>
	<g>
		<path class="st1" d="M182.3,188.5c0,1.4-0.6,2.6-1.7,3.6c-1.1,1-2.5,1.5-3.9,1.5c-1,0-1.9-0.3-2.8-0.8c-0.9-0.5-1.5-1.3-2-2.4
			l-5.5-12.4h-32.6l-5.6,12.4c-0.5,1.1-1.2,1.9-2,2.4c-0.9,0.5-1.8,0.8-2.9,0.8c-1.4,0-2.7-0.5-3.9-1.5c-1.2-1-1.8-2.2-1.8-3.6
			c0-0.8,0.2-1.6,0.6-2.4l25.5-54.9c0.6-1.2,1.4-2.2,2.5-2.8c1.1-0.6,2.4-1,3.7-1c1.3,0,2.5,0.3,3.7,1c1.1,0.6,2,1.6,2.5,2.8
			l25.6,54.9C182.1,186.9,182.3,187.7,182.3,188.5z M137.8,168.7h24.4L150,141.2L137.8,168.7z"/>
	</g>
</g>
</svg>
