<?xml version="1.0" encoding="utf-8"?>
<!-- Generator: Adobe Illustrator 24.0.0, SVG Export Plug-In . SVG Version: 6.00 Build 0)  -->
<svg version="1.1" id="Layer_1" xmlns="http://www.w3.org/2000/svg" xmlns:xlink="http://www.w3.org/1999/xlink" x="0px" y="0px"
	 viewBox="0 0 300 300" style="enable-background:new 0 0 300 300;" xml:space="preserve">
<style type="text/css">
	.st0{fill:#E3F4FF;}
	.st1{fill:#4CB8FF;}
</style>
<circle class="st0" cx="150.3" cy="150" r="150"/>
<path class="st1" d="M204.7,200.8c-9-7.7-14.9-7.8-23.4-0.6v-20.8c0-2.1-1.7-3.8-3.8-3.8h-4.2v-47.7c0-2.1-1.7-3.8-3.8-3.8h-17.9
	v-18.6h13.8l4.2,7.2c0.7,1.2,1.9,1.9,3.3,1.9h14.6c1.2,0,2.4-0.6,3.1-1.6c0.7-1,0.9-2.3,0.5-3.5l-2.8-7.8l2.8-7.8
	c0.4-1.2,0.2-2.5-0.5-3.5c-0.7-1-1.9-1.6-3.1-1.6h-14.6c-1.4,0-2.6,0.7-3.3,1.9l-4.2,7.2h-13.8v-4c0-2.1-1.7-3.8-3.8-3.8
	c-2.1,0-3.8,1.7-3.8,3.8v4h-13.6v-2.6c0-2.1-1.7-3.8-3.8-3.8c-2.1,0-3.8,1.7-3.8,3.8v2.6h-4.3c-2.1,0-3.8,1.7-3.8,3.8
	c0,2.1,1.7,3.8,3.8,3.8h4.3v2.3c0,2.1,1.7,3.8,3.8,3.8c2.1,0,3.8-1.7,3.8-3.8v-2.3H144v18.6h-17.4c-2.1,0-3.8,1.7-3.8,3.8v47.7H117
	c-2.1,0-3.8,1.7-3.8,3.8v18.8c-1,0.8-2.1,1.7-3.2,2.7c-3.3,3-5.4,2.8-6.7,2.4c-0.8-0.2-1.7-0.7-2.8-1.5c-1.7-1.2-4.1-0.7-5.3,1
	c-1.2,1.7-0.7,4.1,1,5.3c1.7,1.2,3.3,1.9,4.8,2.4c3.3,1,8.4,1.1,14.1-4.1c5.8-5.4,7.8-5.4,13.9,0.1c3.4,3.1,7,4.6,10.6,4.6
	c3.6,0,7.2-1.5,10.7-4.6c6-5.4,8-5.4,13.9-0.1c6.9,6.2,14.4,6.2,21.3,0.2c6.2-5.5,7.8-5.5,14.3,0c1.6,1.4,4,1.2,5.4-0.4
	C206.5,204.6,206.3,202.2,204.7,200.8z M175,96.4h7.1l-1.4,4c-0.3,0.8-0.3,1.7,0,2.5l1.4,4H175l-3.1-5.3L175,96.4z M130.4,131.7
	h35.3v43.9h-35.3V131.7z M145.2,200.9c-4,3.6-7.2,3.6-11.1,0c-5-4.5-9.1-6.4-13.3-5.9v-11.8h5.9h42.9h4.2v20.2
	c-1.4-0.3-2.9-1.2-4.4-2.6C160.4,192.8,154.1,192.8,145.2,200.9z"/>
</svg>
