<?xml version="1.0" encoding="utf-8"?>
<!-- Generator: Adobe Illustrator 24.0.0, SVG Export Plug-In . SVG Version: 6.00 Build 0)  -->
<svg version="1.1" id="Layer_1" xmlns="http://www.w3.org/2000/svg" xmlns:xlink="http://www.w3.org/1999/xlink" x="0px" y="0px"
	 viewBox="0 0 300 300" style="enable-background:new 0 0 300 300;" xml:space="preserve">
<style type="text/css">
	.st0{fill:#A8A8A8;}
	.st1{fill:#EB1F27;}
</style>
<g>
	<path class="st0" d="M165.19,247.94c-38.9,0-77.79,0.01-116.69,0c-6.89,0-9.5-2.72-9.51-10.05c-0.04-34.76-0.04-69.51-0.02-104.27
		c0-7.39,2.52-9.99,9.51-9.99c26.81-0.02,53.62-0.01,80.42-0.01c26.67,0.01,53.35,0,80.02,0.01c7.05,0,9.43,2.53,9.43,9.97
		c0,11.48,0,22.96,0,34.44c4.19-1.99,8.79-3.15,13.71-3.38c0.64-0.03,1.29-0.05,1.93-0.05c9.03,0,17.06,3.02,23.45,8.68
		c0-36.34-0.02-72.68-0.08-109.02c0-1.76-0.79-3.97-1.94-5.21c-17.72-19.03-35.55-37.94-53.4-56.83c-0.9-0.95-2.16-2.05-3.29-2.1
		c-1.1-0.05-2.21-0.07-3.32-0.09V0H32.98v0.05c-5.25-0.02-10.51-0.04-15.76-0.04c-11.98,0-17.21,5.51-17.21,18.2
		C0,97.29,0,176.37,0.01,255.44c0,12.79,5.12,18.18,17.17,18.19c21.71,0.02,43.43,0,65.14,0c23.75,0,47.51,0,71.26-0.01
		c0.55-3.69,1.7-7.35,3.47-10.92C159.62,257.55,162.44,252.67,165.19,247.94z M182.57,10.89c-0.01,23.41,0,46.82-0.02,70.24
		c-0.01,12.07-5.73,18.36-16.95,18.38c-35.92,0.06-71.84,0.04-107.77-0.01c-10.89-0.02-16.72-6.41-16.73-18.13
		c-0.02-23.49-0.01-46.98-0.01-70.48H182.57z"/>
	<path class="st0" d="M78.92,85.46c23.88,0.02,47.77,0.02,71.65-0.02c6.12-0.01,8.42-1.97,8.43-7.22c0.05-16.67,0.05-33.33,0.01-50
		c-0.01-5.33-2.28-7.25-8.38-7.26c-12.01-0.02-24.01-0.01-36.02-0.01c-11.88,0-23.75-0.02-35.63,0.01
		c-6.17,0.01-8.32,1.86-8.33,7.21c-0.03,16.67-0.03,33.33-0.01,50C70.65,83.54,72.8,85.45,78.92,85.46z"/>
	<path class="st0" d="M192.34,203.49c-0.56-0.08-1.13-0.13-1.75-0.13c-19.78-0.04-39.57-0.02-59.35-0.02c-3.17,0-6.33,0-9.5,0
		c-16.62,0-33.24-0.04-49.85,0.02c-5.7,0.02-9.19,4.33-8.17,9.81c0.79,4.24,3.7,6.31,9,6.31c36.87,0.01,73.74,0.01,110.62,0
		c2.7-4.8,5.39-9.59,8.09-14.39C191.73,204.56,192.03,204.02,192.34,203.49z"/>
	<path class="st0" d="M71.5,168.01c1.32,0.05,2.64-0.02,3.96-0.02c22.8,0,45.6-0.01,68.4-0.01c15.69,0,31.37,0.07,47.06,0
		c4.44-0.02,7.26-2.32,8.02-6.08c1.13-5.56-2.25-9.86-7.95-9.87c-19.77-0.04-39.53-0.02-59.3-0.02c0,0.01,0,0.01,0,0.02
		c-20.03,0-40.07-0.01-60.1,0.01c-4.91,0.01-7.99,3.11-8,7.9C63.58,164.8,66.53,167.83,71.5,168.01z"/>
	<path class="st1" d="M297.15,267.77c-4.47-7.72-8.94-15.44-13.41-23.17c-8.77-15.15-17.51-30.31-26.31-45.44
		c-1.47-2.52-2.92-5.05-4.4-7.57c-4.28-7.33-10.71-11.25-19.05-11.25c-0.42,0-0.84,0.01-1.26,0.03c-5.89,0.27-10.65,2.52-14.37,6.36
		c-1.47,1.51-2.78,3.26-3.93,5.25c-10.86,18.76-21.73,37.51-32.57,56.27c-0.27,0.48-0.55,0.95-0.82,1.42
		c-3.76,6.5-7.74,12.89-11.1,19.59c-0.73,1.45-1.27,2.9-1.65,4.35c-1.47,5.61-0.4,11.22,2.96,16.49
		c4.41,6.91,10.96,10.17,19.14,10.17c5.98,0.01,11.96,0.01,17.94,0.01c8.56,0,17.13,0,25.69,0c0,0,0,0.01,0,0.01
		c6.66,0,13.33,0.01,19.99,0.01c5.26,0,10.51,0,15.77-0.02c0.11,0,0.22,0,0.32,0c1.53,0,3.07,0.03,4.61,0.03
		c2.19,0,4.38-0.06,6.54-0.33C296.34,298.1,304.76,280.92,297.15,267.77z M228.67,205.31c1.72-0.06,3.44-0.01,5.16-0.01
		c1.64,0,3.27-0.04,4.9,0.01c2.98,0.09,4.82,1.87,4.6,4.84c-0.32,4.32-0.89,8.61-1.38,12.92c-0.81,7.2-1.64,14.4-2.47,21.6
		c-0.25,2.21-0.48,4.43-0.79,6.64c-0.41,2.85-2.25,4.49-4.91,4.48c-2.64-0.01-4.52-1.69-4.87-4.54c-0.9-7.45-1.73-14.91-2.59-22.36
		c-0.65-5.67-1.31-11.33-1.96-17c-0.08-0.68-0.13-1.37-0.11-2.05C224.31,207.1,225.94,205.41,228.67,205.31z M233.81,284.59
		c-5.27,0-9.55-4.26-9.55-9.52c0-0.5,0.05-0.98,0.12-1.46c0.71-4.57,4.65-8.07,9.43-8.07c4.74,0,8.67,3.45,9.41,7.97
		c0.08,0.51,0.14,1.02,0.14,1.55C243.36,280.33,239.09,284.59,233.81,284.59z"/>
</g>
</svg>
