<?xml version="1.0" encoding="utf-8"?>
<!-- Generator: Adobe Illustrator 24.0.0, SVG Export Plug-In . SVG Version: 6.00 Build 0)  -->
<svg version="1.1" id="Layer_1" xmlns="http://www.w3.org/2000/svg" xmlns:xlink="http://www.w3.org/1999/xlink" x="0px" y="0px"
	 viewBox="0 0 300 300" style="enable-background:new 0 0 300 300;" xml:space="preserve">
<style type="text/css">
	.st0{fill:#E3F4FF;}
	.st1{fill:#4CB8FF;}
</style>
<g>
	<g>
		<circle class="st0" cx="150.1" cy="149.5" r="150"/>
	</g>
	<g>
		<path class="st1" d="M181.6,208.2c-3.7,0-7.4-1.1-11.1-3.2c-7.1-4-10.4-4-17.6,0c-7.2,4.1-14.8,4.1-22.1,0
			c-7.3-4.1-10.5-4.1-17.5-0.1c-4.7,2.8-9.6,3.7-14.3,2.8c-1.6-0.3-3.2-0.8-5-1.6c-2-0.8-2.9-3.1-2-5.1c0.8-2,3.1-2.9,5.1-2
			c1.3,0.6,2.4,0.9,3.5,1.1c2.9,0.6,5.9,0,9-1.9c9.4-5.5,15.5-5.5,25.2,0c4.9,2.7,9.6,2.7,14.5,0c9.6-5.4,15.7-5.4,25.2,0
			c4.9,2.8,9.5,2.8,14.5,0.1c9.7-5.4,15.4-5.4,25.4-0.1c1.9,1,2.6,3.3,1.6,5.2c-1,1.9-3.4,2.6-5.2,1.6c-7.7-4.1-10.6-4.2-18,0
			C188.9,207.2,185.3,208.2,181.6,208.2z"/>
	</g>
	<g>
		<path class="st1" d="M113.9,204.2c-1.9,0-3.5-1.4-3.8-3.3l-3.1-20.2c-1.1-7.5,3.6-14.4,10.7-15.5l63.6-9.7
			c3.5-0.5,6.9,0.4,9.7,2.7c2.7,2.2,4.5,5.4,5.1,8.9l5.6,30.3c0.4,2.1-1,4.1-3.1,4.5c-2.1,0.4-4.1-1-4.5-3.1l-5.6-30.4
			c-0.3-1.8-1.1-3.2-2.3-4.2c-1.1-0.9-2.5-1.3-3.7-1.1l-63.6,9.7c-2.8,0.4-4.7,3.4-4.2,6.7l3.1,20.2c0.3,2.1-1.1,4.1-3.2,4.4
			C114.3,204.2,114.1,204.2,113.9,204.2z"/>
	</g>
	<g>
		<path class="st1" d="M123.2,171.9c-0.9,0-1.9-0.3-2.6-1c-0.9-0.8-1.3-1.9-1.3-3l2-53.5c0.1-1.9,1.4-3.4,3.3-3.7l34.3-5.2
			c1.8-0.3,3.6,0.8,4.2,2.6l17.3,50.5c0.4,1.1,0.2,2.3-0.3,3.2c-0.6,1-1.6,1.6-2.7,1.8l-53.6,8.2
			C123.6,171.9,123.4,171.9,123.2,171.9z M129,118l-1.7,45.6l44.4-6.8l-14.8-43.1L129,118z"/>
	</g>
	<g>
		<path class="st1" d="M117.4,119.7c-1.9,0-3.5-1.4-3.8-3.3c-0.3-2.1,1.1-4.1,3.2-4.4l49.5-7.5c2.1-0.4,4.1,1.1,4.4,3.2
			c0.3,2.1-1.1,4.1-3.2,4.4l-49.5,7.5C117.8,119.7,117.6,119.7,117.4,119.7z"/>
	</g>
	<g>
		<path class="st1" d="M127.7,144.8c-1.9,0-3.5-1.4-3.8-3.3c-0.3-2.1,1.1-4.1,3.2-4.4l36.8-5.6c2.1-0.4,4.1,1.1,4.4,3.2
			c0.3,2.1-1.1,4.1-3.2,4.4l-36.8,5.6C128.1,144.8,127.9,144.8,127.7,144.8z"/>
	</g>
	<g>
		<path class="st1" d="M142.1,115.9c-1.9,0-3.5-1.4-3.8-3.3l-2.3-14.8c-0.3-2.1,1.1-4.1,3.2-4.4c2.1-0.3,4.1,1.1,4.4,3.2l2.3,14.8
			c0.3,2.1-1.1,4.1-3.2,4.4C142.5,115.9,142.3,115.9,142.1,115.9z"/>
	</g>
	<g>
		<path class="st1" d="M131.7,101.3c-1.9,0-3.5-1.4-3.8-3.3l-2.4-16c-0.2-1,0.1-2,0.7-2.9c0.6-0.8,1.5-1.4,2.5-1.5l16-2.4
			c1-0.2,2,0.1,2.9,0.7c0.8,0.6,1.4,1.5,1.5,2.5l2.4,16c0.3,2.1-1.1,4.1-3.2,4.4l-16,2.4C132.1,101.3,131.9,101.3,131.7,101.3z
			 M133.7,84.7L135,93l8.3-1.3l-1.3-8.3L133.7,84.7z"/>
	</g>
</g>
</svg>
