<?xml version="1.0" encoding="utf-8"?>
<!-- Generator: Adobe Illustrator 24.0.0, SVG Export Plug-In . SVG Version: 6.00 Build 0)  -->
<svg version="1.1" id="Layer_1" xmlns="http://www.w3.org/2000/svg" xmlns:xlink="http://www.w3.org/1999/xlink" x="0px" y="0px"
	 viewBox="0 0 300 300" style="enable-background:new 0 0 300 300;" xml:space="preserve">
<style type="text/css">
	.st0{fill:#F2F2F2;}
	.st1{fill:#A6ACBE;}
</style>
<circle class="st0" cx="150.2" cy="150" r="150"/>
<g>
	<path class="st1" d="M101.9,118.2v12.4c0,2.1,1.7,3.8,3.8,3.8h0.8v-19.9h-0.8C103.6,114.5,101.9,116.1,101.9,118.2z"/>
	<path class="st1" d="M101.9,169.4v12.4c0,2.1,1.7,3.8,3.8,3.8h0.8v-19.9h-0.8C103.6,165.6,101.9,167.3,101.9,169.4z"/>
	<path class="st1" d="M195.1,93.4h-80.6c-1.8,0-3.3,1.5-3.3,3.3v106.5c0,1.8,1.5,3.3,3.3,3.3h80.6c1.8,0,3.3-1.5,3.3-3.3V96.8
		C198.4,94.9,196.9,93.4,195.1,93.4z M191.7,199.9h-74v-99.8h74V199.9z"/>
	<path class="st1" d="M150.3,154.9c3.6-3.6,7.1-7.1,10.7-10.7c-1.3-0.5-2.8-1.1-4.3-1.7c0.9-3.8,1.8-7.4,2.8-11.1
		c-3.7,3.7-7.2,7.2-10.9,10.9c1.4,0.6,2.9,1.2,4.4,1.8C152,147.8,151.1,151.4,150.3,154.9z"/>
	<path class="st1" d="M140.4,159.7c2.4,2.4,3.6,5,3.8,8c0.1,1,0.1,2,0.1,3.2l0.1,1.6c0.1,1.7,1.5,3,3.2,3.1l5.2,0l6.4,0l2.7,0
		c0,0,0,0,0,0c1.7,0,3.2-1.3,3.3-3c0.1-0.6,0.1-1.2,0-1.6c-0.2-5.2,1.4-9.3,5.1-12.4c0.2-0.2,0.5-0.4,0.7-0.8l0.4-0.4
		c4.9-5.1,7.2-11.1,7-18.4c-0.3-12.7-10.9-23-23.6-23h0c-7.8,0-14.8,3.7-19.4,10.2c-4.6,6.6-5.7,15-2.9,22.6
		C134.3,153.2,137.3,156.7,140.4,159.7z M140.9,129.9c3.3-4.7,8.3-7.4,13.9-7.4h0c9.1,0,16.7,7.4,16.9,16.6
		c0.1,5.5-1.5,9.9-5.1,13.6c-0.2,0.2-0.4,0.4-0.6,0.7c-4.6,3.9-7.2,9.2-7.4,15.5l-5.8,0l-1.9,0c0-0.5,0-1.1-0.1-1.6
		c-0.3-4.6-2.2-8.8-5.7-12.3c-2.5-2.5-5-5.3-6.2-8.6C136.8,140.9,137.6,134.7,140.9,129.9z"/>
	<path class="st1" d="M162.4,178.8h-15.4c-1.8,0-3.3,1.5-3.3,3.3s1.5,3.3,3.3,3.3h15.4c1.8,0,3.3-1.5,3.3-3.3
		S164.3,178.8,162.4,178.8z"/>
</g>
</svg>
