<?xml version="1.0" encoding="utf-8"?>
<!-- Generator: Adobe Illustrator 24.0.0, SVG Export Plug-In . SVG Version: 6.00 Build 0)  -->
<svg version="1.1" id="Layer_1" xmlns="http://www.w3.org/2000/svg" xmlns:xlink="http://www.w3.org/1999/xlink" x="0px" y="0px"
	 viewBox="0 0 300 300" style="enable-background:new 0 0 300 300;" xml:space="preserve">
<style type="text/css">
	.st0{fill:#E7F2E8;}
	.st1{fill:#28B34B;}
</style>
<circle class="st0" cx="150" cy="149.8" r="149.5"/>
<g>
	<g>
		<path class="st1" d="M149.6,173c-3.1,0-6.1-0.3-8.1-0.9c-21.4-6.6-29.7-29-30-30l-0.2-0.5v-33.5c0-8.2,6.7-14.9,14.9-14.9h47.7
			c8.2,0,14.9,6.7,14.9,14.9v33.6l-0.3,0.6c-0.5,1-11.3,25.2-30.1,29.8C156.1,172.7,152.8,173,149.6,173z M117.9,140.4
			c1.3,3.2,9,20.3,25.5,25.4c2.9,0.9,10.1,0.7,13.4-0.1c14.1-3.4,23.6-21.8,25.3-25.4v-32.2c0-4.6-3.7-8.3-8.3-8.3h-47.7
			c-4.6,0-8.3,3.7-8.3,8.3v32.3H117.9z"/>
	</g>
	<g>
		<path class="st1" d="M160.9,193.7h-21.7v-27.3h21.7V193.7z M145.8,187.1h8.5v-14h-8.5V187.1z"/>
	</g>
	<g>
		<path class="st1" d="M185.4,144.4h-70.8c-1.8,0-3.3-1.5-3.3-3.3s1.5-3.3,3.3-3.3h70.8c1.8,0,3.3,1.5,3.3,3.3
			S187.3,144.4,185.4,144.4z"/>
	</g>
	<g>
		<rect x="127.1" y="199.8" class="st1" width="45.9" height="6.6"/>
	</g>
	<g>
		<rect x="114.6" y="121.6" class="st1" width="23.8" height="6.6"/>
	</g>
	<g>
		<rect x="161.6" y="107.6" class="st1" width="23.8" height="6.6"/>
	</g>
</g>
</svg>
