<?xml version="1.0" encoding="utf-8"?>
<!-- Generator: Adobe Illustrator 24.0.0, SVG Export Plug-In . SVG Version: 6.00 Build 0)  -->
<svg version="1.1" id="Layer_1" xmlns="http://www.w3.org/2000/svg" xmlns:xlink="http://www.w3.org/1999/xlink" x="0px" y="0px"
	 viewBox="0 0 300 300" style="enable-background:new 0 0 300 300;" xml:space="preserve">
<style type="text/css">
	.st0{fill:#E7F4FF;}
	.st1{fill:#4CB8FF;}
</style>
<g>
	<circle class="st0" cx="150.1" cy="150" r="149.5"/>
	<g>
		<g>
			<path class="st1" d="M150.1,112.6c18.5,0,34.3,11.4,40.9,27.5c0.3-0.1,0.5-0.2,0.8-0.3c2-0.7,4-1.1,5.9-1.4
				c-7.4-19.1-26-32.7-47.7-32.7c-21.8,0-40.3,13.6-47.7,32.9c2.3,0.3,4.4,0.9,6.6,1.9C115.5,124.2,131.4,112.6,150.1,112.6z"/>
			<path class="st1" d="M194.2,159.9c-0.6,0.1-1.2,0.3-1.8,0.5c-3,1-5.7,3.1-8.5,4.8c-5.5,3.5-11.2,3.9-17,0.8
				c-1.7-0.9-3.3-2.1-4.9-3.2c-6.4-4.2-13.3-4.6-20.5-2.5c-3.3,1-5.9,3.1-8.7,5c-5.3,3.5-10.9,3.8-16.6,0.8c-1.8-1-3.5-2.3-5.3-3.4
				c-1.6-1.1-3.3-1.9-5.1-2.5c-2.1-0.8-4.4-1.1-6.8-1c0.1,2.5,0.4,5,0.9,7.4c1.8,0,3.5,0.4,5.2,1.3c0.9,0.5,1.7,1,2.5,1.5
				c1.2,0.8,2.4,1.5,3.5,2.3c6.5,4.2,13.4,4.6,20.5,2.5c3.3-1,5.9-3.2,8.7-5c5.3-3.4,10.9-3.7,16.4-0.8c1.8,1,3.5,2.3,5.2,3.3
				c6.4,4.2,13.4,4.8,20.4,2.4c3.1-1,5.8-3.1,8.6-4.8c0.5-0.3,1.1-0.7,1.7-1c2.5-1.2,4.9-1.9,7.4-1.9c0.5-2.5,0.8-4.9,0.9-7.4
				C198.8,159,196.6,159.3,194.2,159.9z"/>
			<path class="st1" d="M186.1,182.5c-0.8,0.5-1.4,1-2.1,1.4c-5.5,3.5-11.2,3.9-17,0.8c-1.7-0.9-3.3-2.1-4.9-3.2
				c-6.4-4.2-13.3-4.6-20.5-2.5c-3.3,1-5.9,3.1-8.7,5c-5.3,3.5-10.9,3.8-16.6,0.8c-0.4-0.2-0.8-0.4-1.2-0.6
				c-1.4-0.9-2.8-1.8-4.2-2.8c-2.3-1.5-4.8-2.5-7.4-3.1c2.1,4.6,4.9,8.9,8.3,12.6c4.5,2.7,9.2,3.6,14.1,3.1c1.8-0.2,3.8-0.5,5.7-1.2
				c3.3-1,5.9-3.2,8.7-5c5.3-3.4,10.9-3.7,16.4-0.8c1.8,1,3.5,2.3,5.2,3.3c3.8,2.4,7.6,3.6,11.7,3.8c2.9,0.1,5.8-0.4,8.7-1.4
				c2.7-0.9,5.1-2.5,7.5-4.1c2.6-3.3,4.8-6.8,6.6-10.6c-1.4,0.2-2.7,0.6-4.1,1C190.2,179.9,188.2,181.2,186.1,182.5z"/>
			<path class="st1" d="M106.4,150c1.6,1,3.2,2,4.8,3.1c4,2.6,8.1,3.8,12.4,3.8c2.7,0,5.4-0.5,8.1-1.3c3.3-1,5.9-3.2,8.7-5
				c2.9-1.8,5.9-2.8,8.8-2.8c2.5,0,5.1,0.7,7.6,2c1.8,1,3.5,2.3,5.2,3.3c4,2.5,8.1,3.8,12.4,3.8c2.7,0,5.3-0.5,8.1-1.4
				c3.1-1,5.8-3.1,8.6-4.8c0.8-0.5,1.7-1,2.5-1.4c2.2-1,4.4-1.5,6.6-1.5c0.1,0,0.1,0,0.1,0c-0.5-2.5-1.1-5-1.9-7.4
				c-2,0.2-4,0.6-5.9,1.3c-0.3,0.1-0.5,0.2-0.7,0.3c-2.7,1.1-5.3,2.9-7.8,4.5c-3,1.9-6.1,2.9-9.1,2.9c-2.6,0-5.3-0.7-7.8-2.1
				c-1.7-0.9-3.3-2.1-4.9-3.2c-4-2.6-8.1-3.7-12.4-3.7c-2.7,0-5.3,0.4-8.1,1.2c-3.3,1-5.9,3.1-8.7,5c-2.9,1.8-5.9,2.8-8.9,2.8
				c-2.5,0-5.1-0.7-7.6-2c-1.8-1-3.5-2.3-5.3-3.4c-0.9-0.6-1.8-1.1-2.8-1.6c-2.1-1-4.3-1.6-6.6-1.8c-0.8,2.4-1.4,4.8-1.8,7.3
				c1.8,0,3.7,0.4,5.3,1.3C105.5,149.5,105.9,149.7,106.4,150z"/>
		</g>
	</g>
</g>
</svg>
