<?xml version="1.0" encoding="utf-8"?>
<!-- Generator: Adobe Illustrator 24.0.0, SVG Export Plug-In . SVG Version: 6.00 Build 0)  -->
<svg version="1.1" id="Layer_1" xmlns="http://www.w3.org/2000/svg" xmlns:xlink="http://www.w3.org/1999/xlink" x="0px" y="0px"
	 viewBox="0 0 300 300" style="enable-background:new 0 0 300 300;" xml:space="preserve">
<style type="text/css">
	.st0{fill:#FCDFE0;}
	.st1{fill:#ED1C24;}
</style>
<circle class="st0" cx="150.1" cy="150" r="149.5"/>
<g>
	<g>
		<path class="st1" d="M148.7,178.1h-12.5l-0.1-3.2c0-0.4-0.1-1-0.1-1.5l0,0l-0.1-0.6l-0.1-0.5l-0.1-0.5c-0.2-1.4-0.5-2.9-0.6-3.6
			c-1.2-4.9-4-9.6-8.7-14.3c-9.8-9.9-12.3-24.9-6.3-37.2c6.4-13.1,19.6-20.3,34.6-18.7c12.9,1.4,24.2,11.6,27.5,24.8l0,0
			c2.9,11.8,0.1,22.4-8.2,30.8c-6.5,6.6-9.5,13.2-9.8,21.4l-0.1,3.2h-6.3c-1.2,0-2.4,0-3.6,0L148.7,178.1z M142.4,171.5h6.3
			c2.9,0,5.9,0,9,0h0.1c1-8.5,4.7-15.7,11.5-22.6c6.7-6.8,8.9-15.1,6.5-24.6c-2.6-10.4-11.7-18.8-21.8-19.8
			c-12.3-1.3-22.7,4.3-27.9,15c-4.8,9.8-2.7,21.8,5.1,29.7c5.5,5.6,8.9,11.3,10.4,17.6c0.2,1,0.5,2.5,0.7,4.2l0.1,0.4
			C142.4,171.4,142.4,171.4,142.4,171.5L142.4,171.5z"/>
	</g>
	<g>
		<rect x="135.8" y="183.6" class="st1" width="28" height="6.6"/>
	</g>
	<g>
		<rect x="141.4" y="195.7" class="st1" width="16.9" height="6.6"/>
	</g>
</g>
</svg>
