<?xml version="1.0" encoding="utf-8"?>
<!-- Generator: Adobe Illustrator 24.0.0, SVG Export Plug-In . SVG Version: 6.00 Build 0)  -->
<svg version="1.1" id="Layer_1" xmlns="http://www.w3.org/2000/svg" xmlns:xlink="http://www.w3.org/1999/xlink" x="0px" y="0px"
	 viewBox="0 0 300 300" style="enable-background:new 0 0 300 300;" xml:space="preserve">
<style type="text/css">
	.st0{fill:#E7F2E8;}
	.st1{fill:#28B34B;}
</style>
<circle class="st0" cx="150" cy="149.8" r="149.5"/>
<g>
	<g>
		<path class="st1" d="M184.7,188.7h-72.8c-10.2,0-18.6-8.3-18.6-18.6v-3c0-10.2,8.3-18.6,18.6-18.6h72.8c10.2,0,18.6,8.3,18.6,18.6
			v3C203.3,180.4,195,188.7,184.7,188.7z M111.9,155.2c-6.6,0-11.9,5.4-11.9,11.9v3c0,6.6,5.4,11.9,11.9,11.9h72.8
			c6.6,0,11.9-5.4,11.9-11.9v-3c0-6.6-5.4-11.9-11.9-11.9H111.9z"/>
	</g>
	<g>
		<path class="st1" d="M161.5,155.2h-26.3v-45.3h26.3V155.2z M141.8,148.5h13v-32h-13V148.5z"/>
	</g>
	<g>
		<path class="st1" d="M187.2,131.3c-0.7,0-1.4-0.1-2.1-0.2c-3-0.5-5.7-2.2-7.4-4.8c-1.8-2.5-2.4-5.6-1.9-8.6c0.5-3,2.2-5.7,4.8-7.4
			c2.5-1.8,5.6-2.4,8.6-1.9c3,0.5,5.7,2.2,7.4,4.8l0,0c1.8,2.5,2.4,5.6,1.9,8.6c-0.5,3-2.2,5.7-4.8,7.4
			C191.8,130.6,189.5,131.3,187.2,131.3z M187.1,114.9c-1,0-2,0.3-2.8,0.9c-1.1,0.7-1.8,1.9-2,3.2c-0.2,1.3,0.1,2.6,0.8,3.7
			c0.7,1.1,1.9,1.8,3.2,2c1.3,0.2,2.6-0.1,3.7-0.8c1.1-0.7,1.8-1.9,2-3.2c0.2-1.3-0.1-2.6-0.8-3.7v0c-0.7-1.1-1.9-1.8-3.2-2
			C187.7,114.9,187.4,114.9,187.1,114.9z"/>
	</g>
	<g>
		<path class="st1" d="M200,91c-3.7,0-6.7-3-6.7-6.7s3-6.7,6.7-6.7c3.7,0,6.7,3,6.7,6.7S203.7,91,200,91z M200,84.2L200,84.2
			C200,84.3,200,84.2,200,84.2z"/>
	</g>
	<g>
		<g>
			<rect x="125.2" y="151.9" class="st1" width="6.6" height="33.5"/>
		</g>
		<g>
			<rect x="164.8" y="151.9" class="st1" width="6.6" height="33.5"/>
		</g>
	</g>
</g>
</svg>
