<?xml version="1.0" encoding="utf-8"?>
<!-- Generator: Adobe Illustrator 24.0.0, SVG Export Plug-In . SVG Version: 6.00 Build 0)  -->
<svg version="1.1" id="Layer_1" xmlns="http://www.w3.org/2000/svg" xmlns:xlink="http://www.w3.org/1999/xlink" x="0px" y="0px"
	 viewBox="0 0 300 300" style="enable-background:new 0 0 300 300;" xml:space="preserve">
<style type="text/css">
	.st0{fill:#FCDFE0;}
	.st1{fill:#ED1C24;}
</style>
<circle class="st0" cx="150.1" cy="150" r="149.5"/>
<path class="st1" d="M201.8,174.8l-45.6-26.2l-0.1-25c6.4,0.6,12.4,3.4,16.9,8.1l4.8-4.6c-5.8-6-13.5-9.6-21.7-10.2v-14.2
	c13.9,0.4,27.1,6.9,35.8,18l5.2-4.1c-10-12.6-25.1-20.1-41-20.5V96h-6.6l0.1,52.5l-22.5,13.1c-1.3-2.8-2-5.8-2.3-8.9
	c-0.3-3.3,0.1-6.6,1-9.7l-6.3-1.9c-1.2,3.9-1.6,8-1.3,12.1c0.3,4.1,1.4,8.1,3.1,11.7l-11.4,6.6c-2.7-5.4-4.3-11.2-4.7-17.4
	c-0.5-7.1,0.5-14,3-20.6l-6.2-2.4c-2.9,7.5-4,15.4-3.4,23.5c0.5,7.1,2.4,13.9,5.6,20.2h-0.1l1.1,1.9c0.1,0.2,0.2,0.4,0.3,0.6l0,0
	l1.9,3.3l45.4-26.4l21,12c-4.2,5.5-10.1,9.1-16.9,10.2l1.1,6.5c8.8-1.5,16.4-6.2,21.6-13.5l12.9,7.4c-7.9,11.3-20.3,18.8-34.1,20.2
	l0.7,6.6c15.9-1.6,30.3-10.3,39.2-23.5l0.2,0.1L201.8,174.8z"/>
</svg>
