<?xml version="1.0" encoding="utf-8"?>
<!-- Generator: Adobe Illustrator 24.0.0, SVG Export Plug-In . SVG Version: 6.00 Build 0)  -->
<svg version="1.1" id="Layer_1" xmlns="http://www.w3.org/2000/svg" xmlns:xlink="http://www.w3.org/1999/xlink" x="0px" y="0px"
	 viewBox="0 0 300 300" style="enable-background:new 0 0 300 300;" xml:space="preserve">
<style type="text/css">
	.st0{fill:#E7F2E8;}
	.st1{fill:#28B34B;}
</style>
<circle class="st0" cx="150.1" cy="150" r="149.5"/>
<g>
	<g>
		<path class="st1" d="M184.7,189.4h-59.1c-5.7,0-10.4-4.6-10.4-10.4v-58.2c0-5.7,4.6-10.4,10.4-10.4h59.1
			c14.6,0,26.4,11.9,26.4,26.4v26.1C211.2,177.5,199.3,189.4,184.7,189.4z M125.6,117.1c-2,0-3.7,1.7-3.7,3.7V179
			c0,2,1.7,3.7,3.7,3.7h59.1c10.9,0,19.8-8.9,19.8-19.8v-26.1c0-10.9-8.9-19.8-19.8-19.8h-59.1V117.1z"/>
	</g>
	<g>
		<g>
			<rect x="135.6" y="135.4" class="st1" width="30.9" height="6.6"/>
		</g>
		<g>
			<rect x="135.6" y="157.8" class="st1" width="30.9" height="6.6"/>
		</g>
	</g>
	<g>
		<path class="st1" d="M121.9,174.9h-15.5c-4.3,0-7.8-3.5-7.8-7.8v-34.2c0-4.3,3.5-7.8,7.8-7.8h15.5V174.9z M106.4,131.6
			c-0.7,0-1.2,0.5-1.2,1.2V167c0,0.7,0.5,1.2,1.2,1.2h8.8v-36.6H106.4z"/>
	</g>
	<g>
		<path class="st1" d="M185.5,203.6h-58.2l7.9-20.9h41.1L185.5,203.6z M136.9,197h38.4l-3.4-7.6h-32.2L136.9,197z"/>
	</g>
	<g>
		<rect x="180.6" y="113.8" class="st1" width="6.6" height="72.2"/>
	</g>
	<g>
		<rect x="135.6" y="96.4" class="st1" width="40.7" height="6.6"/>
	</g>
	<g>
		<rect x="89" y="146.6" class="st1" width="12.9" height="6.6"/>
	</g>
</g>
</svg>
